<svg width="625" height="615" viewBox="0 0 625 615" fill="none" xmlns="http://www.w3.org/2000/svg">
<g clip-path="url(#clip0_21_70)">
<path d="M454.81 114.114C454.734 137.956 453.121 161.769 449.98 185.404C449.87 186.234 449.75 187.064 449.64 187.894H226.36C225.7 187.074 225.05 186.244 224.42 185.404C222.32 182.624 220.35 179.764 218.54 176.804C209.84 162.544 205.8 145.814 209.69 134.234L209.76 134.054C210.599 131.518 211.931 129.173 213.68 127.154C222.64 116.954 240.88 118.544 257.47 126.644C242.54 110.484 230.61 90.0537 229.61 71.7637C228.63 53.9237 237.89 41.1238 247.95 30.2337C248.28 29.8737 248.61 29.5237 248.94 29.1737C249.1 28.9937 249.27 28.8237 249.43 28.6437C257.28 20.3437 266.44 12.1537 279.77 13.0638C294.39 14.0638 310.66 26.2137 322.1 40.4137C333.54 54.6037 341.18 70.7537 348.92 86.5137C356.67 102.264 365.05 118.414 377.42 131.844C360.65 110.874 347.09 86.9837 342 63.7038C336.91 40.4238 341.15 18.0138 355.93 6.95375C360.417 3.69877 365.619 1.56595 371.1 0.73375C371.74 0.62375 372.39 0.533751 373.05 0.453751C386.78 -1.1862 403.21 3.47375 417.23 14.7538C432.67 27.1738 443.43 45.6538 448.83 63.2238C454.23 80.7937 454.89 97.7337 454.81 114.114Z" fill="#F2F2F2"/>
<path d="M309.14 187.894H304.87C303.51 187.054 302.143 186.224 300.77 185.404C299.92 184.874 299.06 184.364 298.2 183.844C283.99 175.274 269.693 167.057 255.31 159.194C240.94 151.324 226.5 143.82 211.99 136.684C211.605 136.519 211.291 136.224 211.101 135.852C210.911 135.479 210.857 135.052 210.95 134.644C210.965 134.59 210.989 134.54 211.02 134.494C211.22 134.114 211.67 133.954 212.33 134.274C214.11 135.154 215.9 136.034 217.68 136.934C232.23 144.194 246.72 151.82 261.15 159.814C275.57 167.804 289.91 176.15 304.17 184.854C304.47 185.034 304.77 185.224 305.07 185.404C306.43 186.234 307.78 187.064 309.14 187.894Z" fill="white"/>
<path d="M364.19 187.894H361.55C360.95 187.064 360.36 186.234 359.76 185.404C345.66 165.864 331.564 146.324 317.47 126.784C294.39 94.7937 271.316 62.8037 248.25 30.8137C248.113 30.6416 248.011 30.4446 247.95 30.2337C247.75 29.5237 248.27 29.1037 248.94 29.1737C249.222 29.2125 249.493 29.311 249.735 29.4627C249.976 29.6145 250.183 29.816 250.34 30.0537C263.28 47.9937 276.217 65.927 289.15 83.8537C312.11 115.684 335.067 147.51 358.02 179.334C359.48 181.354 360.94 183.384 362.4 185.404C363 186.234 363.6 187.064 364.19 187.894Z" fill="white"/>
<path d="M422.92 172.234C422.81 176.684 422.54 181.064 422.18 185.404C422.11 186.234 422.04 187.064 421.97 187.894H419.2C419.28 187.064 419.36 186.234 419.43 185.404C419.98 179.134 420.36 172.794 420.38 166.284C420.353 148.235 418.493 130.236 414.83 112.564C410.935 93.5347 405.391 74.881 398.26 56.8137C390.775 37.7582 381.776 19.3326 371.35 1.7137C371.154 1.42668 371.065 1.07962 371.1 0.733705C371.21 -0.0562953 372.26 -0.296294 373.05 0.453706C373.206 0.600851 373.34 0.769158 373.45 0.953706C374.74 3.14371 376.006 5.34037 377.25 7.5437C387.296 25.2629 395.913 43.7548 403.02 62.8437C409.789 80.9723 414.965 99.6563 418.49 118.684C421.79 136.336 423.275 154.279 422.92 172.234Z" fill="white"/>
<path d="M615.72 185.404H8.71973C6.40771 185.406 4.191 186.325 2.55618 187.96C0.921366 189.595 0.00203087 191.812 0 194.124V605.444C0.00202823 607.756 0.921366 609.972 2.55618 611.607C4.191 613.242 6.40771 614.162 8.71973 614.164H615.72C616.98 614.164 618.226 613.89 619.371 613.362C620.516 612.834 621.532 612.063 622.35 611.104C622.419 611.029 622.483 610.948 622.54 610.864C623.061 610.227 623.482 609.516 623.79 608.754C624.229 607.705 624.453 606.58 624.45 605.444V194.124C624.447 191.81 623.526 189.592 621.889 187.957C620.252 186.322 618.033 185.404 615.72 185.404ZM621.96 605.444C621.961 606.66 621.602 607.85 620.93 608.864C620.332 609.756 619.521 610.485 618.57 610.984C617.689 611.439 616.711 611.676 615.72 611.674H8.71973C7.06804 611.672 5.48457 611.015 4.31665 609.847C3.14873 608.679 2.49172 607.095 2.48972 605.444V194.124C2.49171 192.472 3.14873 190.889 4.31665 189.721C5.48457 188.553 7.06804 187.896 8.71973 187.894H615.72C617.373 187.893 618.959 188.549 620.129 189.718C621.299 190.886 621.957 192.47 621.96 194.124V605.444Z" fill="#3F3D56"/>
<path d="M623.199 220.353H1.24268V222.846H623.199V220.353Z" fill="#3F3D56"/>
<path d="M22.4316 211.578C26.5618 211.578 29.91 208.23 29.91 204.1C29.91 199.97 26.5618 196.621 22.4316 196.621C18.3013 196.621 14.9531 199.97 14.9531 204.1C14.9531 208.23 18.3013 211.578 22.4316 211.578Z" fill="#3F3D56"/>
<path d="M43.9321 211.578C48.0623 211.578 51.4105 208.23 51.4105 204.1C51.4105 199.97 48.0623 196.621 43.9321 196.621C39.8018 196.621 36.4536 199.97 36.4536 204.1C36.4536 208.23 39.8018 211.578 43.9321 211.578Z" fill="#3F3D56"/>
<path d="M65.4325 211.578C69.5628 211.578 72.911 208.23 72.911 204.1C72.911 199.97 69.5628 196.621 65.4325 196.621C61.3023 196.621 57.9541 199.97 57.9541 204.1C57.9541 208.23 61.3023 211.578 65.4325 211.578Z" fill="#3F3D56"/>
<path d="M276.977 432.274C269.498 427.405 265.778 416.09 267.61 405.742C269.443 395.394 276.345 386.481 284.618 382.638C288.642 380.824 293.055 380.038 297.458 380.351C301.861 380.664 306.118 382.066 309.846 384.431C317.433 389.07 328.163 391.611 331.766 400.893C334.535 408.026 331.023 422.511 327.296 429.439C324.076 435.427 317.955 438.167 312.205 439.357C305.843 440.654 299.278 440.57 292.951 439.11C286.625 437.651 280.686 434.849 275.536 430.896L276.977 432.274Z" fill="#2F2E41"/>
<path d="M273.076 487.234L267.096 497.544L266.306 498.904L265.156 500.904H247.526L248.716 498.904L251.796 493.714L258.976 481.594L267.106 484.844L273.076 487.234Z" fill="#FFB8B8"/>
<path d="M246.206 500.904L242.986 498.904L242.586 498.654L262.796 461.824C263.665 460.23 264.842 458.824 266.258 457.687C267.674 456.551 269.302 455.707 271.046 455.204C273.248 454.548 275.581 454.462 277.826 454.954C279.136 455.23 280.397 455.702 281.566 456.354C282.047 456.618 282.512 456.912 282.956 457.234C284.665 458.432 286.069 460.014 287.056 461.854C288.23 464.007 288.811 466.434 288.737 468.886C288.663 471.337 287.938 473.725 286.636 475.804L278.846 488.254L272.186 498.904L270.936 500.904H246.206Z" fill="#2F2E41"/>
<path d="M298.13 445.345C311.695 445.345 322.691 434.349 322.691 420.784C322.691 407.219 311.695 396.223 298.13 396.223C284.565 396.223 273.569 407.219 273.569 420.784C273.569 434.349 284.565 445.345 298.13 445.345Z" fill="#FFB8B8"/>
<path d="M322.786 500.904H267.576L267.826 500.194C267.686 499.764 267.556 499.334 267.436 498.904C267.306 498.454 267.196 497.994 267.096 497.544C266.199 493.358 266.202 489.028 267.106 484.844C270.156 469.864 282.326 457.694 282.326 457.694C282.536 457.534 282.746 457.384 282.956 457.234C284.767 455.908 286.731 454.807 288.806 453.954C297.846 450.204 307.326 451.714 313.696 453.654C315.914 454.325 318.083 455.15 320.186 456.124C320.926 456.474 321.326 456.694 321.326 456.694L321.956 475.904L322.716 498.904L322.786 500.904Z" fill="#6C63FF"/>
<path d="M348.326 498.904L344.106 477.444L339.846 455.804C339.669 454.91 339.225 454.091 338.574 453.454C337.922 452.817 337.093 452.392 336.196 452.234L327.276 450.694L318.976 449.264C318.176 449.12 317.351 449.197 316.591 449.488C315.831 449.779 315.166 450.272 314.666 450.914C314.042 451.691 313.7 452.657 313.696 453.654C313.696 454.269 313.822 454.879 314.066 455.444C318.396 465.544 318.476 481.534 317.376 498.904C317.326 499.564 317.286 500.234 317.236 500.904H348.726L348.326 498.904Z" fill="#2F2E41"/>
<path d="M288.806 453.954C288.623 453.226 288.261 452.555 287.754 452.002C287.246 451.449 286.61 451.03 285.9 450.784C285.191 450.538 284.432 450.473 283.691 450.593C282.95 450.713 282.251 451.016 281.656 451.474L277.826 454.954L262.146 469.234C261.657 469.672 261.274 470.216 261.026 470.824C259.256 475.054 255.806 483.404 251.796 493.714C251.146 495.394 250.476 497.124 249.786 498.904C249.546 499.564 249.286 500.234 249.026 500.904H274.866C275.076 500.234 275.286 499.564 275.496 498.904C276.646 495.274 277.766 491.714 278.846 488.254C282.006 478.204 284.856 469.074 287.056 461.854C287.666 459.854 288.223 458.007 288.726 456.314C288.961 455.548 288.989 454.734 288.806 453.954Z" fill="#2F2E41"/>
<path d="M354.126 500.904H355.796L355.566 500.344L354.956 498.904L345.546 476.574L344.106 477.444L332.546 484.434L338.476 498.904L339.296 500.904H348.726H354.126Z" fill="#FFB8B8"/>
<path d="M344.586 458.864C343.313 455.531 340.8 452.82 337.574 451.297C334.348 449.775 330.658 449.558 327.276 450.694C326.844 450.837 326.42 451.004 326.006 451.194C323.637 452.251 321.618 453.961 320.186 456.124C319.602 456.987 319.122 457.917 318.756 458.894C318.107 460.589 317.8 462.396 317.854 464.21C317.907 466.024 318.319 467.81 319.066 469.464L321.956 475.904L332.296 498.904L333.196 500.904H354.126L355.566 500.344L359.306 498.904L359.826 498.704L344.586 458.864Z" fill="#2F2E41"/>
<path d="M317.42 392.576C318.276 392.832 319.193 392.799 320.029 392.482C320.864 392.165 321.572 391.582 322.042 390.822C322.488 390.047 322.75 389.181 322.808 388.289C322.867 387.398 322.721 386.504 322.381 385.678C321.684 384.029 320.585 382.58 319.185 381.464C317.596 380.025 315.66 379.023 313.568 378.555C312.523 378.33 311.441 378.333 310.397 378.562C309.353 378.792 308.37 379.243 307.515 379.886C306.676 380.55 306.054 381.449 305.729 382.468C305.403 383.488 305.39 384.581 305.689 385.608C306.325 387.453 308.048 388.688 309.768 389.609C313.181 391.431 316.945 392.501 320.806 392.747L317.42 392.576Z" fill="#2F2E41"/>
<path d="M322.198 420.051C318.25 420.595 318.757 418.585 317.175 414.926C315.594 411.267 313.477 406.924 309.508 406.553C306.256 406.25 303.576 408.85 300.941 410.781C296.245 414.222 289.915 415.906 284.472 413.842C279.028 411.777 275.245 405.289 277.31 399.846C277.953 398.343 278.898 396.988 280.086 395.864C281.274 394.741 282.68 393.874 284.217 393.316C287.3 392.22 290.574 391.766 293.839 391.98C301.101 392.212 308.223 394.035 314.703 397.321C319.175 399.593 323.529 402.844 325.226 407.565C326.922 412.285 328.039 418.919 323.188 420.196L322.198 420.051Z" fill="#2F2E41"/>
<path d="M315.402 379.591C313.45 376.194 315.061 371.532 318.255 369.262C321.448 366.992 325.732 366.769 329.543 367.68C333.312 368.629 336.765 370.553 339.555 373.258C342.346 375.963 344.377 379.354 345.443 383.091C347.06 389.032 346.099 395.414 347.468 401.417C348.198 404.617 349.576 407.634 351.516 410.281C353.456 412.929 355.917 415.151 358.748 416.812C361.58 418.473 364.721 419.536 367.979 419.937C371.236 420.337 374.542 420.067 377.691 419.142C381.793 417.938 385.961 415.009 386.365 410.753C386.79 415.64 385.675 420.538 383.178 424.761C380.68 428.984 376.925 432.32 372.437 434.302C367.152 436.506 361.257 436.65 355.532 436.503C351.801 436.408 347.986 436.183 344.544 434.74C342.163 433.654 340.023 432.103 338.248 430.179C336.474 428.256 335.101 425.997 334.211 423.536C332.459 418.589 331.985 413.279 332.835 408.101C333.399 404.072 334.519 400.124 334.832 396.069C335.146 392.013 334.551 387.683 332.051 384.475C329.551 381.266 324.775 379.627 321.221 381.605C319.792 382.399 318.64 383.697 317.088 384.21C315.535 384.723 313.336 383.822 313.477 382.193L315.402 379.591Z" fill="#2F2E41"/>
<path d="M483.006 500.904L483.196 498.904L488.836 440.224C490.685 438.776 492.671 437.513 494.766 436.454C506.376 430.604 517.576 433.404 523.636 435.824C525.242 436.452 526.794 437.212 528.276 438.094L531.576 498.904L531.686 500.904H483.006Z" fill="#6C63FF"/>
<path d="M509.419 424.606C522.984 424.606 533.98 413.61 533.98 400.045C533.98 386.481 522.984 375.484 509.419 375.484C495.854 375.484 484.858 386.481 484.858 400.045C484.858 413.61 495.854 424.606 509.419 424.606Z" fill="#FFB8B8"/>
<path d="M529.347 415.021C531.173 413.097 532.385 410.674 532.829 408.059C533.273 405.444 532.93 402.756 531.842 400.337C530.754 397.918 528.972 395.877 526.721 394.474C524.47 393.071 521.853 392.369 519.202 392.457C515.805 392.571 512.605 393.961 509.364 394.981C504.451 396.652 499.211 397.124 494.079 396.357C488.916 395.556 484.258 392.805 481.062 388.671C478.024 384.495 477.076 378.702 479.223 374.004C481.701 368.581 487.49 365.592 492.936 363.164C495.133 362.065 497.479 361.294 499.899 360.877C501.111 360.675 502.352 360.727 503.544 361.027C504.736 361.327 505.853 361.871 506.825 362.623C508.356 363.939 509.253 365.918 510.918 367.058C512.793 368.342 515.228 368.309 517.489 368.535C522.582 369.045 527.399 371.093 531.299 374.407C535.199 377.721 537.998 382.144 539.323 387.088C540.649 392.032 540.437 397.262 538.718 402.083C536.998 406.903 533.851 411.086 529.697 414.075L529.347 415.021Z" fill="#2F2E41"/>
<path d="M498.426 446.614L494.766 436.454L494.538 435.82C494.429 435.52 494.254 435.248 494.025 435.026C493.796 434.803 493.52 434.636 493.217 434.536C492.914 434.436 492.592 434.406 492.275 434.449C491.959 434.492 491.657 434.607 491.391 434.784L487.236 437.554C487.236 437.554 460.586 437.554 458.446 453.544C458.416 453.794 458.376 454.074 458.346 454.374C458.345 454.387 458.341 454.401 458.336 454.414C458.066 455.464 453.036 474.904 448.716 498.904C448.596 499.564 448.476 500.234 448.356 500.904H506.266C508.15 476.795 507.096 454.379 498.426 446.614Z" fill="#2F2E41"/>
<path d="M567.506 498.904C564.346 474.284 559.826 454.374 559.826 454.374C559.786 454.074 559.746 453.794 559.716 453.544C557.586 437.554 530.936 437.554 530.936 437.554L526.783 434.785C526.518 434.608 526.215 434.494 525.898 434.451C525.582 434.408 525.26 434.438 524.957 434.538C524.653 434.638 524.377 434.806 524.148 435.028C523.919 435.251 523.744 435.523 523.636 435.824L519.746 446.614C511.076 454.379 510.022 476.794 511.906 500.903L567.756 500.904C567.676 500.234 567.586 499.564 567.506 498.904Z" fill="#2F2E41"/>
<path d="M98.4259 442.844L92.4859 498.904L92.2759 500.904H76.2062C76.3961 500.254 76.5861 499.584 76.7863 498.904C81.3463 483.264 87.5563 460.434 86.8859 454.384C85.8361 444.944 93.1862 441.794 93.1862 441.794L93.6461 441.884L98.4259 442.844Z" fill="#6C63FF"/>
<path d="M124.343 425.54C137.907 425.54 148.904 414.544 148.904 400.979C148.904 387.414 137.907 376.418 124.343 376.418C110.778 376.418 99.7816 387.414 99.7816 400.979C99.7816 414.544 110.778 425.54 124.343 425.54Z" fill="#A0616A"/>
<path d="M156.136 489.004C154.897 491.287 153.883 493.685 153.106 496.164C152.816 497.044 152.536 497.964 152.276 498.904C152.086 499.554 151.916 500.224 151.746 500.904H86.9658C87.0562 500.244 87.1357 499.574 87.2261 498.904C90.5361 472.754 93.2158 446.214 93.646 441.884C93.686 441.474 93.7061 441.264 93.7061 441.264C132.526 420.804 160.856 447.564 160.856 447.564C160.856 447.564 160.896 447.754 160.956 448.124C161.576 451.864 164.736 473.704 156.136 489.004Z" fill="#6C63FF"/>
<path d="M153.106 496.164L148.786 486.904L149.836 450.184L160.956 448.124L161.346 448.054C167.094 451.395 171.542 456.583 173.966 462.774C176.126 468.174 180.236 484.414 183.706 498.904C183.866 499.574 184.026 500.244 184.186 500.904H155.316L154.386 498.904L153.106 496.164Z" fill="#6C63FF"/>
<path d="M192.616 335.904H50.5963C47.5501 335.907 44.6297 337.119 42.4756 339.273C40.3216 341.427 39.1098 344.348 39.1061 347.394V489.414C39.1098 492.46 40.3216 495.38 42.4756 497.534C44.6297 499.688 47.5501 500.9 50.5963 500.904H192.616C195.663 500.902 198.584 499.691 200.739 497.536C202.893 495.382 204.104 492.461 204.106 489.414V347.394C204.104 344.347 202.893 341.426 200.739 339.271C198.584 337.117 195.663 335.906 192.616 335.904ZM202.106 489.414C202.104 491.93 201.104 494.343 199.324 496.122C197.545 497.901 195.133 498.902 192.616 498.904H50.5963C48.0806 498.9 45.6689 497.899 43.89 496.12C42.111 494.341 41.1099 491.93 41.1061 489.414V347.394C41.1099 344.878 42.111 342.466 43.89 340.688C45.6689 338.909 48.0806 337.908 50.5963 337.904H192.616C195.133 337.906 197.545 338.906 199.324 340.686C201.104 342.465 202.104 344.878 202.106 347.394V489.414ZM92.486 498.904L92.2759 500.904H151.746C151.916 500.224 152.086 499.554 152.276 498.904H92.486Z" fill="#3F3D56"/>
<path d="M383.226 335.904H241.206C238.16 335.907 235.239 337.119 233.085 339.273C230.931 341.427 229.72 344.348 229.716 347.394V489.414C229.72 492.46 230.931 495.38 233.085 497.534C235.239 499.688 238.16 500.9 241.206 500.904H383.226C386.273 500.902 389.194 499.691 391.349 497.536C393.503 495.382 394.714 492.461 394.716 489.414V347.394C394.714 344.347 393.503 341.426 391.349 339.271C389.194 337.117 386.273 335.906 383.226 335.904ZM392.716 489.414C392.714 491.93 391.713 494.343 389.934 496.122C388.155 497.901 385.742 498.902 383.226 498.904H241.206C238.69 498.9 236.279 497.899 234.5 496.12C232.721 494.341 231.72 491.93 231.716 489.414V347.394C231.72 344.878 232.721 342.466 234.5 340.688C236.279 338.909 238.69 337.908 241.206 337.904H383.226C385.742 337.906 388.155 338.906 389.934 340.686C391.713 342.465 392.714 344.878 392.716 347.394V489.414ZM267.436 498.904C267.556 499.334 267.686 499.764 267.826 500.194L267.576 500.904H317.236C317.286 500.234 317.326 499.564 317.376 498.904H267.436Z" fill="#3F3D56"/>
<path d="M573.846 335.904H431.826C428.78 335.906 425.858 337.117 423.704 339.271C421.549 341.426 420.338 344.347 420.336 347.394V489.414C420.338 492.461 421.549 495.382 423.704 497.536C425.858 499.691 428.78 500.902 431.826 500.904H573.846C576.892 500.9 579.813 499.688 581.967 497.534C584.121 495.38 585.332 492.46 585.336 489.414V347.394C585.332 344.348 584.121 341.427 581.967 339.273C579.813 337.119 576.892 335.908 573.846 335.904ZM583.336 489.414C583.332 491.93 582.331 494.341 580.552 496.12C578.774 497.899 576.362 498.9 573.846 498.904H431.826C429.31 498.902 426.897 497.901 425.118 496.122C423.339 494.343 422.338 491.93 422.336 489.414V347.394C422.338 344.878 423.339 342.465 425.118 340.686C426.897 338.906 429.31 337.906 431.826 337.904H573.846C576.362 337.908 578.774 338.909 580.552 340.688C582.331 342.466 583.332 344.878 583.336 347.394V489.414ZM506.416 498.904C506.366 499.564 506.316 500.234 506.266 500.904H549.356C549.436 500.244 549.526 499.574 549.606 498.904H506.416Z" fill="#3F3D56"/>
<path d="M477.221 558.904H147.221C145.099 558.904 143.064 558.061 141.564 556.561C140.064 555.06 139.221 553.026 139.221 550.904C139.221 548.782 140.064 546.747 141.564 545.247C143.064 543.747 145.099 542.904 147.221 542.904H477.221C479.343 542.904 481.378 543.747 482.878 545.247C484.378 546.747 485.221 548.782 485.221 550.904C485.221 553.026 484.378 555.06 482.878 556.561C481.378 558.061 479.343 558.904 477.221 558.904Z" fill="#CCCCCC"/>
<path d="M384.721 293.904H239.721C237.599 293.904 235.564 293.061 234.064 291.561C232.564 290.06 231.721 288.026 231.721 285.904C231.721 283.782 232.564 281.747 234.064 280.247C235.564 278.747 237.599 277.904 239.721 277.904H384.721C386.843 277.904 388.878 278.747 390.378 280.247C391.878 281.747 392.721 283.782 392.721 285.904C392.721 288.026 391.878 290.06 390.378 291.561C388.878 293.061 386.843 293.904 384.721 293.904Z" fill="#6C63FF"/>
<path d="M136.091 422.378C136.922 423.198 138.022 423.691 139.188 423.765C140.353 423.84 141.507 423.492 142.436 422.784C148.225 418.493 153.307 413.152 156.314 406.638C159.76 399.173 160.145 390.012 155.99 382.917C152.478 376.92 146.275 373.049 140.094 369.871C137.694 368.517 135.109 367.52 132.42 366.914C129.703 366.314 126.859 366.773 124.469 368.197C123.299 368.93 122.378 369.999 121.824 371.264C121.271 372.529 121.112 373.931 121.368 375.287C118.399 371.9 114.596 369.347 110.336 367.882C107.654 366.832 104.717 366.619 101.911 367.271C97.9883 368.384 95.1246 371.869 93.5583 375.633C92.2916 378.497 91.8542 381.658 92.2959 384.758C92.5283 386.301 93.0819 387.777 93.9209 389.092C94.7599 390.407 95.8656 391.532 97.1665 392.393C100.41 394.399 104.547 394.255 108.272 393.435C111.996 392.615 115.601 391.189 119.398 390.829C123.195 390.468 127.422 391.415 129.733 394.449C131.36 396.585 131.778 399.377 132.143 402.038L134.043 415.877C134.198 417.879 134.71 419.837 135.553 421.66C135.699 421.922 135.88 422.164 136.091 422.378Z" fill="#2F2E41"/>
</g>
<defs>
<clipPath id="clip0_21_70">
<rect width="624.45" height="614.164" fill="white"/>
</clipPath>
</defs>
</svg>
