<svg width="35" height="35" viewBox="0 0 35 35" fill="none" xmlns="http://www.w3.org/2000/svg">
<circle cx="17.5" cy="17.5" r="17.5" fill="#D9D9D9"/>
<path d="M24.6663 24.5V22.8333C24.6663 21.9493 24.3151 21.1014 23.69 20.4763C23.0649 19.8512 22.2171 19.5 21.333 19.5H14.6663C13.7823 19.5 12.9344 19.8512 12.3093 20.4763C11.6842 21.1014 11.333 21.9493 11.333 22.8333V24.5" stroke="black" stroke-width="2" stroke-linecap="round" stroke-linejoin="round"/>
<path d="M18.0003 16.1667C19.8413 16.1667 21.3337 14.6743 21.3337 12.8333C21.3337 10.9924 19.8413 9.5 18.0003 9.5C16.1594 9.5 14.667 10.9924 14.667 12.8333C14.667 14.6743 16.1594 16.1667 18.0003 16.1667Z" stroke="black" stroke-width="2" stroke-linecap="round" stroke-linejoin="round"/>
</svg>
