<svg width="216" height="31" viewBox="0 0 216 31" fill="none" xmlns="http://www.w3.org/2000/svg">
<path d="M0.651279 24V2.18182H9.74929C11.3828 2.18182 12.75 2.41264 13.8509 2.87429C14.9588 3.33594 15.7898 3.98224 16.3438 4.81321C16.9048 5.64418 17.1854 6.60653 17.1854 7.70028C17.1854 8.53125 17.0114 9.27344 16.6634 9.92685C16.3153 10.5732 15.8359 11.1094 15.2251 11.5355C14.6143 11.9616 13.9077 12.2599 13.1051 12.4304V12.6435C13.9858 12.6861 14.799 12.924 15.5447 13.3572C16.2976 13.7905 16.9013 14.3942 17.3558 15.1683C17.8104 15.9354 18.0376 16.8445 18.0376 17.8956C18.0376 19.0675 17.7393 20.1151 17.1428 21.0384C16.5462 21.9545 15.6832 22.679 14.554 23.2116C13.4247 23.7372 12.054 24 10.4418 24H0.651279ZM5.92472 19.7493H9.18466C10.3281 19.7493 11.1697 19.5327 11.7095 19.0994C12.2564 18.6662 12.5298 18.0625 12.5298 17.2884C12.5298 16.7273 12.3984 16.2443 12.1357 15.8395C11.8729 15.4276 11.5 15.1115 11.017 14.8913C10.5341 14.6641 9.95526 14.5504 9.28054 14.5504H5.92472V19.7493ZM5.92472 11.152H8.84375C9.41903 11.152 9.9304 11.0561 10.3778 10.8643C10.8253 10.6726 11.1733 10.3956 11.4219 10.0334C11.6776 9.67116 11.8054 9.23437 11.8054 8.72301C11.8054 7.99148 11.5462 7.41619 11.0277 6.99716C10.5092 6.57813 9.80966 6.36861 8.92898 6.36861H5.92472V11.152ZM20.5732 24V7.63636H25.7827V24H20.5732ZM23.1832 5.7294C22.4517 5.7294 21.8232 5.48793 21.2976 5.00497C20.772 4.51491 20.5092 3.92543 20.5092 3.23651C20.5092 2.55469 20.772 1.9723 21.2976 1.48935C21.8232 0.999289 22.4517 0.75426 23.1832 0.75426C23.9219 0.75426 24.5504 0.999289 25.0689 1.48935C25.5945 1.9723 25.8572 2.55469 25.8572 3.23651C25.8572 3.92543 25.5945 4.51491 25.0689 5.00497C24.5504 5.48793 23.9219 5.7294 23.1832 5.7294ZM29.1412 24V21.0277L36.7264 11.7912V11.6847H29.4075V7.63636H42.9373V10.8963L35.9061 19.8452V19.9517H43.193V24H29.1412ZM155.296 8.72301C155.225 7.94176 154.909 7.33452 154.348 6.90128C153.794 6.46094 153.002 6.24077 151.972 6.24077C151.29 6.24077 150.722 6.32955 150.268 6.5071C149.813 6.68466 149.472 6.92969 149.245 7.24219C149.018 7.54759 148.901 7.89915 148.893 8.29688C148.879 8.62358 148.943 8.91122 149.085 9.1598C149.234 9.40838 149.447 9.62855 149.724 9.82031C150.009 10.005 150.349 10.1683 150.747 10.3104C151.145 10.4524 151.592 10.5767 152.089 10.6832L153.964 11.1094C155.044 11.3438 155.996 11.6562 156.82 12.0469C157.651 12.4375 158.347 12.9027 158.908 13.4425C159.476 13.9822 159.906 14.6037 160.197 15.3068C160.488 16.0099 160.637 16.7983 160.644 17.6719C160.637 19.0497 160.289 20.2322 159.6 21.2195C158.911 22.2067 157.92 22.9631 156.628 23.4886C155.342 24.0142 153.79 24.277 151.972 24.277C150.147 24.277 148.556 24.0036 147.2 23.4567C145.843 22.9098 144.788 22.0788 144.036 20.9638C143.283 19.8487 142.896 18.4389 142.874 16.7344H147.924C147.967 17.4375 148.155 18.0234 148.489 18.4922C148.822 18.9609 149.281 19.3161 149.863 19.5575C150.452 19.799 151.134 19.9197 151.908 19.9197C152.619 19.9197 153.222 19.8239 153.719 19.6321C154.224 19.4403 154.611 19.174 154.881 18.8331C155.151 18.4922 155.289 18.1016 155.296 17.6612C155.289 17.2493 155.161 16.8977 154.913 16.6065C154.664 16.3082 154.281 16.0526 153.762 15.8395C153.251 15.6193 152.597 15.4169 151.802 15.2322L149.522 14.6996C147.633 14.2663 146.145 13.5668 145.058 12.6009C143.972 11.6278 143.432 10.3139 143.439 8.65909C143.432 7.30966 143.794 6.12713 144.526 5.11151C145.257 4.09588 146.269 3.30398 147.562 2.7358C148.854 2.16761 150.328 1.88352 151.983 1.88352C153.673 1.88352 155.14 2.17116 156.383 2.74645C157.633 3.31463 158.602 4.11364 159.291 5.14347C159.98 6.1733 160.332 7.36648 160.346 8.72301H155.296ZM166.493 30.1364C165.868 30.1364 165.278 30.0866 164.724 29.9872C164.17 29.8949 163.695 29.7706 163.297 29.6143L164.447 25.8324C164.959 26.0028 165.42 26.1023 165.832 26.1307C166.251 26.1591 166.61 26.0916 166.908 25.9283C167.214 25.772 167.448 25.4915 167.612 25.0866L167.814 24.5966L161.997 7.63636H167.452L170.467 19.3125H170.637L173.695 7.63636H179.181L173.013 25.5661C172.714 26.4609 172.292 27.2493 171.745 27.9311C171.205 28.62 170.506 29.1598 169.646 29.5504C168.794 29.9411 167.743 30.1364 166.493 30.1364ZM186.388 14.6676V24H181.179V7.63636H186.132V10.6406H186.314C186.676 9.6392 187.294 8.8544 188.167 8.28622C189.041 7.71094 190.081 7.4233 191.289 7.4233C192.439 7.4233 193.437 7.68253 194.282 8.20099C195.135 8.71236 195.795 9.42969 196.264 10.353C196.74 11.2692 196.974 12.3416 196.967 13.5703V24H191.757V14.593C191.765 13.6839 191.534 12.9737 191.065 12.4624C190.603 11.951 189.961 11.6953 189.137 11.6953C188.59 11.6953 188.107 11.8161 187.688 12.0575C187.276 12.2919 186.956 12.6293 186.729 13.0696C186.509 13.5099 186.395 14.0426 186.388 14.6676ZM207.831 24.3089C206.105 24.3089 204.624 23.9538 203.388 23.2436C202.16 22.5334 201.215 21.5462 200.555 20.282C199.894 19.0107 199.564 17.5405 199.564 15.8714C199.564 14.1953 199.894 12.7251 200.555 11.4609C201.222 10.1896 202.17 9.19886 203.399 8.48864C204.635 7.77841 206.108 7.4233 207.82 7.4233C209.333 7.4233 210.65 7.69673 211.773 8.24361C212.902 8.79048 213.782 9.56463 214.415 10.5661C215.054 11.5604 215.391 12.7287 215.427 14.071H210.558C210.459 13.233 210.175 12.576 209.706 12.1001C209.244 11.6243 208.64 11.3864 207.895 11.3864C207.291 11.3864 206.762 11.5568 206.307 11.8977C205.853 12.2315 205.498 12.7287 205.242 13.3892C204.993 14.0426 204.869 14.8523 204.869 15.8182C204.869 16.7841 204.993 17.6009 205.242 18.2685C205.498 18.929 205.853 19.4297 206.307 19.7706C206.762 20.1044 207.291 20.2713 207.895 20.2713C208.378 20.2713 208.804 20.1683 209.173 19.9624C209.55 19.7564 209.858 19.4545 210.1 19.0568C210.341 18.652 210.494 18.1619 210.558 17.5866H215.427C215.377 18.9361 215.04 20.1151 214.415 21.1236C213.797 22.1321 212.927 22.9169 211.805 23.478C210.689 24.032 209.365 24.3089 207.831 24.3089Z" fill="black"/>
<path d="M66.3642 10.0866H61.0375C60.9664 9.53977 60.8208 9.04616 60.6007 8.60582C60.3805 8.16548 60.0893 7.78906 59.7271 7.47656C59.3649 7.16406 58.9352 6.92614 58.438 6.76278C57.948 6.59233 57.4047 6.5071 56.8081 6.5071C55.7498 6.5071 54.8372 6.76633 54.0701 7.2848C53.3102 7.80327 52.7243 8.55256 52.3123 9.53267C51.9075 10.5128 51.7051 11.6989 51.7051 13.0909C51.7051 14.5398 51.911 15.7543 52.323 16.7344C52.742 17.7074 53.3279 18.4425 54.0808 18.9396C54.8407 19.4297 55.7392 19.6747 56.7761 19.6747C57.3585 19.6747 57.8876 19.6001 58.3635 19.451C58.8464 19.3018 59.269 19.0852 59.6312 18.8011C60.0005 18.5099 60.3024 18.1584 60.5368 17.7464C60.7782 17.3274 60.9451 16.8551 61.0375 16.3295L66.3642 16.3615C66.2718 17.3274 65.9913 18.2791 65.5226 19.2166C65.0609 20.1541 64.4252 21.0099 63.6156 21.7841C62.8059 22.5511 61.8187 23.1619 60.6539 23.6165C59.4963 24.071 58.1681 24.2983 56.6696 24.2983C54.6951 24.2983 52.9267 23.8651 51.3642 22.9986C49.8088 22.125 48.5801 20.8537 47.6781 19.1847C46.7761 17.5156 46.3251 15.4844 46.3251 13.0909C46.3251 10.6903 46.7832 8.65554 47.6994 6.98651C48.6156 5.31747 49.8549 4.04972 51.4174 3.18324C52.9799 2.31676 54.7306 1.88352 56.6696 1.88352C57.9906 1.88352 59.2122 2.06818 60.3343 2.4375C61.4565 2.79972 62.4437 3.33239 63.296 4.03551C64.1483 4.73153 64.8407 5.58736 65.3734 6.60298C65.9061 7.61861 66.2363 8.77983 66.3642 10.0866ZM77.0202 24.3089C75.3015 24.3089 73.8242 23.9574 72.5884 23.2543C71.3597 22.544 70.4116 21.5568 69.744 20.2926C69.0835 19.0213 68.7532 17.5476 68.7532 15.8714C68.7532 14.1882 69.0835 12.7145 69.744 11.4503C70.4116 10.179 71.3597 9.19176 72.5884 8.48864C73.8242 7.77841 75.3015 7.4233 77.0202 7.4233C78.739 7.4233 80.2127 7.77841 81.4414 8.48864C82.6772 9.19176 83.6254 10.179 84.2859 11.4503C84.9535 12.7145 85.2873 14.1882 85.2873 15.8714C85.2873 17.5476 84.9535 19.0213 84.2859 20.2926C83.6254 21.5568 82.6772 22.544 81.4414 23.2543C80.2127 23.9574 78.739 24.3089 77.0202 24.3089ZM77.0522 20.3778C77.6772 20.3778 78.2063 20.1861 78.6396 19.8026C79.0728 19.419 79.4031 18.8864 79.6303 18.2045C79.8647 17.5227 79.9819 16.7344 79.9819 15.8395C79.9819 14.9304 79.8647 14.1349 79.6303 13.4531C79.4031 12.7713 79.0728 12.2386 78.6396 11.8551C78.2063 11.4716 77.6772 11.2798 77.0522 11.2798C76.4059 11.2798 75.859 11.4716 75.4116 11.8551C74.9712 12.2386 74.6339 12.7713 74.3995 13.4531C74.1722 14.1349 74.0586 14.9304 74.0586 15.8395C74.0586 16.7344 74.1722 17.5227 74.3995 18.2045C74.6339 18.8864 74.9712 19.419 75.4116 19.8026C75.859 20.1861 76.4059 20.3778 77.0522 20.3778ZM87.956 24V7.63636H92.9098V10.6406H93.0909C93.4318 9.64631 94.0071 8.86151 94.8168 8.28622C95.6264 7.71094 96.5923 7.4233 97.7145 7.4233C98.8509 7.4233 99.8239 7.71449 100.634 8.29688C101.443 8.87926 101.958 9.66051 102.178 10.6406H102.349C102.654 9.66761 103.251 8.88991 104.138 8.30753C105.026 7.71804 106.074 7.4233 107.281 7.4233C108.83 7.4233 110.087 7.92045 111.053 8.91477C112.018 9.90199 112.501 11.2585 112.501 12.9844V24H107.292V14.1776C107.292 13.3608 107.082 12.7393 106.663 12.3132C106.244 11.88 105.701 11.6634 105.033 11.6634C104.316 11.6634 103.751 11.8977 103.339 12.3665C102.935 12.8281 102.732 13.4496 102.732 14.2308V24H97.7251V14.1243C97.7251 13.3643 97.5192 12.7642 97.1072 12.3239C96.6953 11.8835 96.152 11.6634 95.4773 11.6634C95.0227 11.6634 94.6214 11.7734 94.2734 11.9936C93.9254 12.2067 93.652 12.5121 93.4531 12.9098C93.2614 13.3075 93.1655 13.7763 93.1655 14.3161V24H87.956ZM115.729 24V7.63636H120.683V10.6406H120.864C121.205 9.64631 121.781 8.86151 122.59 8.28622C123.4 7.71094 124.366 7.4233 125.488 7.4233C126.624 7.4233 127.597 7.71449 128.407 8.29688C129.217 8.87926 129.732 9.66051 129.952 10.6406H130.122C130.428 9.66761 131.024 8.88991 131.912 8.30753C132.8 7.71804 133.847 7.4233 135.055 7.4233C136.603 7.4233 137.86 7.92045 138.826 8.91477C139.792 9.90199 140.275 11.2585 140.275 12.9844V24H135.065V14.1776C135.065 13.3608 134.856 12.7393 134.437 12.3132C134.018 11.88 133.474 11.6634 132.807 11.6634C132.089 11.6634 131.525 11.8977 131.113 12.3665C130.708 12.8281 130.506 13.4496 130.506 14.2308V24H125.499V14.1243C125.499 13.3643 125.293 12.7642 124.881 12.3239C124.469 11.8835 123.925 11.6634 123.251 11.6634C122.796 11.6634 122.395 11.7734 122.047 11.9936C121.699 12.2067 121.425 12.5121 121.227 12.9098C121.035 13.3075 120.939 13.7763 120.939 14.3161V24H115.729Z" fill="#6C63FF"/>
</svg>
