<svg width="25" height="25" viewBox="0 0 25 25" fill="none" xmlns="http://www.w3.org/2000/svg">
<g clip-path="url(#clip0_209_956)">
<path d="M20.8335 4.16667H4.16683C3.021 4.16667 2.0835 5.10417 2.0835 6.25V18.75C2.0835 19.8958 3.021 20.8333 4.16683 20.8333H20.8335C21.9793 20.8333 22.9168 19.8958 22.9168 18.75V6.25C22.9168 5.10417 21.9793 4.16667 20.8335 4.16667ZM20.8335 18.75H4.16683V6.25H20.8335V18.75ZM4.16683 0H20.8335V2.08333H4.16683V0ZM4.16683 22.9167H20.8335V25H4.16683V22.9167ZM12.5002 12.5C13.9377 12.5 15.1043 11.3333 15.1043 9.89583C15.1043 8.45833 13.9377 7.29167 12.5002 7.29167C11.0627 7.29167 9.896 8.45833 9.896 9.89583C9.896 11.3333 11.0627 12.5 12.5002 12.5ZM12.5002 8.85417C13.0731 8.85417 13.5418 9.32292 13.5418 9.89583C13.5418 10.4688 13.0731 10.9375 12.5002 10.9375C11.9272 10.9375 11.4585 10.4688 11.4585 9.89583C11.4585 9.32292 11.9272 8.85417 12.5002 8.85417ZM17.7085 16.6562C17.7085 14.4792 14.2606 13.5417 12.5002 13.5417C10.7397 13.5417 7.29183 14.4792 7.29183 16.6562V17.7083H17.7085V16.6562ZM9.17725 16.1458C9.81266 15.6042 11.2918 15.1042 12.5002 15.1042C13.7189 15.1042 15.1981 15.6042 15.8335 16.1458H9.17725Z" fill="black" fill-opacity="0.5"/>
</g>
<defs>
<clipPath id="clip0_209_956">
<rect width="25" height="25" fill="white"/>
</clipPath>
</defs>
</svg>
