<svg width="25" height="25" viewBox="0 0 25 25" fill="none" xmlns="http://www.w3.org/2000/svg">
<g clip-path="url(#clip0_209_622)">
<path d="M20.8333 4.16667H4.16659C3.02075 4.16667 2.08325 5.10417 2.08325 6.25V18.75C2.08325 19.8958 3.02075 20.8333 4.16659 20.8333H20.8333C21.9791 20.8333 22.9166 19.8958 22.9166 18.75V6.25C22.9166 5.10417 21.9791 4.16667 20.8333 4.16667ZM20.8333 18.75H4.16659V6.25H20.8333V18.75ZM4.16659 0H20.8333V2.08333H4.16659V0ZM4.16659 22.9167H20.8333V25H4.16659V22.9167ZM12.4999 12.5C13.9374 12.5 15.1041 11.3333 15.1041 9.89583C15.1041 8.45833 13.9374 7.29167 12.4999 7.29167C11.0624 7.29167 9.89575 8.45833 9.89575 9.89583C9.89575 11.3333 11.0624 12.5 12.4999 12.5ZM12.4999 8.85417C13.0728 8.85417 13.5416 9.32292 13.5416 9.89583C13.5416 10.4688 13.0728 10.9375 12.4999 10.9375C11.927 10.9375 11.4583 10.4688 11.4583 9.89583C11.4583 9.32292 11.927 8.85417 12.4999 8.85417ZM17.7083 16.6562C17.7083 14.4792 14.2603 13.5417 12.4999 13.5417C10.7395 13.5417 7.29159 14.4792 7.29159 16.6562V17.7083H17.7083V16.6562ZM9.177 16.1458C9.81242 15.6042 11.2916 15.1042 12.4999 15.1042C13.7187 15.1042 15.1978 15.6042 15.8333 16.1458H9.177Z" fill="#6C63FF"/>
</g>
<defs>
<clipPath id="clip0_209_622">
<rect width="25" height="25" fill="white"/>
</clipPath>
</defs>
</svg>
