<svg width="25" height="25" viewBox="0 0 25 25" fill="none" xmlns="http://www.w3.org/2000/svg">
<g clip-path="url(#clip0_209_603)">
<path d="M7.66431 20.0129C7.05813 20.0129 6.56665 19.5214 6.56665 18.9152V15.6772C6.56665 15.071 7.05813 14.5795 7.66431 14.5795C8.27049 14.5795 8.76196 15.071 8.76196 15.6772V18.9152C8.76196 19.5214 8.27049 20.0129 7.66431 20.0129Z" fill="black" fill-opacity="0.5"/>
<path d="M12.4861 20.0129C11.8799 20.0129 11.3884 19.5214 11.3884 18.9152V12.486C11.3884 11.8798 11.8799 11.3883 12.4861 11.3883C13.0923 11.3883 13.5837 11.8798 13.5837 12.486V18.9152C13.5837 19.5214 13.0923 20.0129 12.4861 20.0129Z" fill="black" fill-opacity="0.5"/>
<path d="M17.3079 20.0129C16.7017 20.0129 16.2102 19.5214 16.2102 18.9152V6.05675C16.2102 5.45057 16.7017 4.95909 17.3079 4.95909C17.914 4.95909 18.4055 5.45057 18.4055 6.05675V18.915C18.4055 19.5214 17.914 20.0129 17.3079 20.0129Z" fill="black" fill-opacity="0.5"/>
<path d="M21.3779 24.8346H3.59425C1.68817 24.8346 0.137451 23.2842 0.137451 21.3778V3.59416C0.137451 1.68808 1.68817 0.137362 3.59425 0.137362H21.3782C23.2843 0.137362 24.8347 1.68808 24.8347 3.59416V21.3781C24.8347 23.2842 23.2843 24.8346 21.3779 24.8346ZM3.59425 2.33267C2.89861 2.33267 2.33276 2.89852 2.33276 3.59416V21.3781C2.33276 22.0735 2.89861 22.6393 3.59425 22.6393H21.3782C22.0736 22.6393 22.6394 22.0735 22.6394 21.3778V3.59416C22.6394 2.89852 22.0736 2.33267 21.3779 2.33267H3.59425Z" fill="black" fill-opacity="0.5"/>
</g>
<defs>
<clipPath id="clip0_209_603">
<rect width="25" height="25" fill="white"/>
</clipPath>
</defs>
</svg>
