<svg width="17" height="17" viewBox="0 0 17 17" fill="none" xmlns="http://www.w3.org/2000/svg">
<path d="M16.4455 5.49589H0.535134C0.291059 5.49589 0.0932617 5.2981 0.0932617 5.05402V3.69855C0.0932617 3.45447 0.291059 3.25668 0.535134 3.25668H16.4453C16.6894 3.25668 16.8872 3.45447 16.8872 3.69855V5.05384C16.8874 5.2981 16.6896 5.49589 16.4455 5.49589Z" fill="black" fill-opacity="0.93"/>
<path d="M14.4464 9.61008H2.53465C2.29057 9.61008 2.09277 9.41229 2.09277 9.16821V7.81292C2.09277 7.56885 2.29057 7.37105 2.53465 7.37105H14.4464C14.6904 7.37105 14.8882 7.56885 14.8882 7.81292V9.16821C14.8882 9.41229 14.6904 9.61008 14.4464 9.61008Z" fill="black" fill-opacity="0.93"/>
<path d="M11.4474 13.7243H5.53367C5.28959 13.7243 5.0918 13.5265 5.0918 13.2824V11.9271C5.0918 11.683 5.28959 11.4852 5.53367 11.4852H11.4474C11.6915 11.4852 11.8893 11.683 11.8893 11.9271V13.2824C11.8893 13.5265 11.6915 13.7243 11.4474 13.7243Z" fill="black" fill-opacity="0.93"/>
</svg>
