<svg width="500" height="auto" viewBox="0 0 413 239" fill="none" xmlns="http://www.w3.org/2000/svg">
<g clip-path="url(#clip0_156_308)">
<path d="M202.211 183.361C201.737 183.362 201.267 183.268 200.831 183.083C200.394 182.899 199.999 182.629 199.67 182.289L194.104 176.548C193.455 175.877 193.099 174.977 193.116 174.045C193.132 173.114 193.519 172.227 194.192 171.579L225.426 141.926C226.544 140.871 228.035 140.298 229.575 140.329C231.116 140.361 232.581 140.996 233.655 142.096L236.035 144.55C236.567 145.095 236.984 145.74 237.264 146.447C237.543 147.154 237.679 147.91 237.664 148.669C237.648 149.434 237.481 150.189 237.172 150.89C236.864 151.59 236.419 152.224 235.864 152.753L204.66 182.378C204.003 183.01 203.125 183.363 202.211 183.361Z" fill="#6C63FF"/>
<path d="M278.931 183.361C278.017 183.363 277.138 183.01 276.481 182.377L245.278 152.753C244.723 152.224 244.278 151.59 243.97 150.89C243.661 150.189 243.494 149.434 243.478 148.669C243.463 147.91 243.599 147.154 243.878 146.447C244.158 145.74 244.576 145.095 245.107 144.55L247.487 142.096C248.561 140.996 250.027 140.361 251.567 140.329C253.107 140.298 254.598 140.871 255.716 141.926L286.949 171.578C287.622 172.226 288.009 173.113 288.026 174.045C288.043 174.977 287.688 175.877 287.038 176.548L281.472 182.289C281.143 182.629 280.748 182.899 280.312 183.083C279.875 183.268 279.406 183.362 278.931 183.361Z" fill="#6C63FF"/>
<path d="M117.299 198.405H1.36886e-05V172.7C-0.00167821 172.086 0.153494 171.482 0.450937 170.944C0.748379 170.407 1.17831 169.953 1.70027 169.627L56.6975 135.004C57.2822 134.638 57.9588 134.444 58.6494 134.444C59.34 134.444 60.0166 134.638 60.6013 135.004L115.599 169.627C116.121 169.953 116.55 170.407 116.848 170.944C117.145 171.482 117.3 172.086 117.299 172.7V198.405Z" fill="#CCCCCC"/>
<path d="M381.221 218.955H179.207V217.873H380.135V137.32H381.221V218.955Z" fill="#3F3D56"/>
<path d="M52.133 105.423H51.0469V23.7877H271.525V24.8689H52.133V105.423Z" fill="#3F3D56"/>
<path d="M98.6081 200.116H18.6902C17.722 200.115 16.7937 199.731 16.109 199.049C15.4243 198.368 15.0392 197.444 15.0381 196.48V144.722C15.0392 143.758 15.4243 142.834 16.109 142.152C16.7937 141.471 17.722 141.087 18.6902 141.086H98.6081C99.5764 141.087 100.505 141.471 101.189 142.152C101.874 142.834 102.259 143.758 102.26 144.722V196.48C102.259 197.444 101.874 198.368 101.189 199.049C100.505 199.731 99.5764 200.115 98.6081 200.116Z" fill="#E6E6E6"/>
<path d="M47.4779 153.063H23.8462C23.5356 153.064 23.2279 153.003 22.9408 152.885C22.6537 152.767 22.3927 152.594 22.1729 152.375C21.9531 152.157 21.7787 151.897 21.6597 151.612C21.5407 151.326 21.4795 151.02 21.4795 150.71C21.4795 150.401 21.5407 150.095 21.6597 149.809C21.7787 149.524 21.9531 149.264 22.1729 149.046C22.3927 148.827 22.6537 148.654 22.9408 148.536C23.2279 148.418 23.5356 148.357 23.8462 148.358H47.4779C47.7885 148.357 48.0962 148.418 48.3833 148.536C48.6704 148.654 48.9313 148.827 49.1512 149.046C49.371 149.264 49.5454 149.524 49.6644 149.809C49.7834 150.095 49.8446 150.401 49.8446 150.71C49.8446 151.02 49.7834 151.326 49.6644 151.612C49.5454 151.897 49.371 152.157 49.1512 152.375C48.9313 152.594 48.6704 152.767 48.3833 152.885C48.0962 153.003 47.7885 153.064 47.4779 153.063Z" fill="white"/>
<path d="M92.8079 165.04H24.0614C23.3777 165.04 22.7219 164.77 22.2385 164.288C21.755 163.807 21.4834 163.154 21.4834 162.474C21.4834 161.793 21.755 161.14 22.2385 160.659C22.7219 160.178 23.3777 159.907 24.0614 159.907H92.8079C93.491 159.908 94.1457 160.179 94.6284 160.66C95.1111 161.141 95.3822 161.794 95.3822 162.474C95.3822 163.154 95.1111 163.806 94.6284 164.287C94.1457 164.768 93.491 165.039 92.8079 165.04Z" fill="white"/>
<path d="M92.8079 174.023H24.0614C23.3777 174.023 22.7219 173.752 22.2385 173.271C21.755 172.79 21.4834 172.137 21.4834 171.456C21.4834 170.776 21.755 170.123 22.2385 169.642C22.7219 169.16 23.3777 168.89 24.0614 168.89H92.8079C93.4917 168.89 94.1474 169.16 94.6308 169.642C95.1143 170.123 95.3859 170.776 95.3859 171.456C95.3859 172.137 95.1143 172.79 94.6308 173.271C94.1474 173.752 93.4917 174.023 92.8079 174.023Z" fill="white"/>
<path d="M92.8079 183.006H24.0614C23.3777 183.006 22.7219 182.735 22.2385 182.254C21.755 181.773 21.4834 181.12 21.4834 180.439C21.4834 179.758 21.755 179.106 22.2385 178.624C22.7219 178.143 23.3777 177.873 24.0614 177.873H92.8079C93.491 177.874 94.1457 178.144 94.6284 178.626C95.1111 179.107 95.3822 179.759 95.3822 180.439C95.3822 181.119 95.1111 181.771 94.6284 182.253C94.1457 182.734 93.491 183.005 92.8079 183.006Z" fill="white"/>
<path d="M113.647 227.492H3.65216C2.68388 227.491 1.75558 227.107 1.0709 226.425C0.386225 225.744 0.00109093 224.82 0 223.856V176.803C0.00109093 175.839 0.386225 174.915 1.0709 174.234C1.75558 173.552 2.68388 173.168 3.65216 173.167L3.73566 173.184L52.1306 193.51C54.1951 194.371 56.411 194.814 58.6494 194.814C60.8877 194.814 63.1036 194.371 65.1681 193.51L113.603 173.167H113.647C114.615 173.168 115.543 173.552 116.228 174.234C116.913 174.915 117.298 175.839 117.299 176.803V223.856C117.298 224.82 116.913 225.744 116.228 226.426C115.543 227.107 114.615 227.491 113.647 227.492Z" fill="#CCCCCC"/>
<path d="M383.977 60.6913H334.941C333.945 60.6902 332.991 60.296 332.287 59.5952C331.583 58.8944 331.187 57.9442 331.186 56.9531V3.73823C331.187 2.74713 331.583 1.79694 332.287 1.09613C332.991 0.395318 333.945 0.00111469 334.941 0H383.977C384.972 0.00110612 385.927 0.395308 386.631 1.09612C387.335 1.79694 387.73 2.74713 387.732 3.73823V56.9531C387.73 57.9442 387.335 58.8944 386.631 59.5952C385.927 60.296 384.972 60.6902 383.977 60.6913Z" fill="#E6E6E6"/>
<path d="M364.539 12.3142H340.242C339.598 12.3142 338.98 12.0593 338.524 11.6057C338.068 11.1521 337.812 10.5368 337.812 9.89532C337.812 9.2538 338.068 8.63855 338.524 8.18493C338.98 7.7313 339.598 7.47646 340.242 7.47646H364.539C365.184 7.47646 365.801 7.7313 366.257 8.18493C366.713 8.63855 366.969 9.2538 366.969 9.89532C366.969 10.5368 366.713 11.1521 366.257 11.6057C365.801 12.0593 365.184 12.3142 364.539 12.3142Z" fill="white"/>
<path d="M378.013 24.6284H340.463C340.115 24.6289 339.769 24.561 339.447 24.4286C339.125 24.2962 338.833 24.1019 338.586 23.8568C338.34 23.6118 338.144 23.3207 338.011 23.0003C337.877 22.6799 337.809 22.3365 337.809 21.9896C337.809 21.6428 337.877 21.2993 338.011 20.9789C338.144 20.6585 338.34 20.3675 338.586 20.1224C338.833 19.8773 339.125 19.683 339.447 19.5506C339.769 19.4183 340.115 19.3504 340.463 19.3509H378.013C378.715 19.3519 379.388 19.6303 379.884 20.1251C380.381 20.6198 380.659 21.2904 380.659 21.9896C380.659 22.6888 380.381 23.3594 379.884 23.8542C379.388 24.3489 378.715 24.6274 378.013 24.6284Z" fill="white"/>
<path d="M378.013 33.864H340.463C339.76 33.864 339.086 33.586 338.589 33.0911C338.092 32.5963 337.812 31.9251 337.812 31.2252C337.812 30.5254 338.092 29.8542 338.589 29.3594C339.086 28.8645 339.76 28.5865 340.463 28.5865H378.013C378.716 28.5865 379.39 28.8645 379.887 29.3594C380.384 29.8542 380.663 30.5254 380.663 31.2252C380.663 31.9251 380.384 32.5963 379.887 33.0911C379.39 33.586 378.716 33.864 378.013 33.864Z" fill="white"/>
<path d="M378.013 43.0996H340.463C339.76 43.0996 339.086 42.8216 338.589 42.3268C338.092 41.8319 337.812 41.1607 337.812 40.4609C337.812 39.761 338.092 39.0899 338.589 38.595C339.086 38.1001 339.76 37.8221 340.463 37.8221H378.013C378.716 37.8221 379.39 38.1001 379.887 38.595C380.384 39.0899 380.663 39.761 380.663 40.4609C380.663 41.1607 380.384 41.8319 379.887 42.3268C379.39 42.8216 378.716 43.0996 378.013 43.0996Z" fill="white"/>
<path d="M388.444 77.6044L342.765 59.8546C341.838 59.4932 341.093 58.7805 340.693 57.8729C340.293 56.9652 340.271 55.9367 340.632 55.0131L360.068 5.44047C360.431 4.51762 361.147 3.7758 362.058 3.37777C362.97 2.97974 364.003 2.95799 364.931 3.31732L410.61 21.0671C411.537 21.4285 412.283 22.1412 412.682 23.0489C413.082 23.9565 413.104 24.985 412.743 25.9087L393.308 75.4813C392.945 76.4041 392.229 77.1459 391.317 77.544C390.405 77.942 389.372 77.9638 388.444 77.6044Z" fill="#E6E6E6"/>
<path d="M388.006 25.5025L365.372 16.7075C364.772 16.4741 364.29 16.0129 364.031 15.4256C363.772 14.8382 363.759 14.1726 363.993 13.5752C364.227 12.9778 364.69 12.4974 365.28 12.2397C365.87 11.982 366.538 11.9681 367.139 12.2009L389.773 20.9959C390.373 21.2292 390.855 21.6902 391.114 22.2778C391.373 22.8653 391.387 23.5311 391.153 24.1287C390.918 24.7263 390.455 25.2068 389.865 25.4644C389.275 25.7221 388.606 25.7357 388.006 25.5025Z" fill="white"/>
<path d="M396.06 41.851L361.08 28.2589C360.426 28.004 359.9 27.501 359.618 26.8603C359.336 26.2196 359.321 25.4936 359.576 24.842C359.832 24.1904 360.337 23.6665 360.98 23.3853C361.623 23.1041 362.353 23.0888 363.007 23.3426L397.987 36.9347C398.312 37.0604 398.608 37.2486 398.86 37.4885C399.112 37.7284 399.313 38.0153 399.453 38.3328C399.593 38.6503 399.669 38.9923 399.677 39.339C399.684 39.6858 399.622 40.0305 399.496 40.3536C399.369 40.6767 399.18 40.9718 398.938 41.2219C398.697 41.4721 398.409 41.6724 398.089 41.8115C397.77 41.9506 397.427 42.0256 397.078 42.0324C396.73 42.0392 396.384 41.9776 396.06 41.851Z" fill="white"/>
<path d="M392.687 50.4545L357.707 36.8624C357.383 36.7364 357.086 36.548 356.835 36.3081C356.584 36.0681 356.383 35.7813 356.243 35.464C356.103 35.1466 356.028 34.805 356.021 34.4585C356.013 34.112 356.075 33.7676 356.201 33.4448C356.328 33.122 356.517 32.8271 356.758 32.5771C356.999 32.3271 357.287 32.1268 357.606 31.9876C357.925 31.8485 358.268 31.7732 358.616 31.766C358.964 31.7589 359.31 31.8201 359.634 31.9461L394.614 45.5382C395.269 45.7927 395.795 46.2957 396.078 46.9367C396.36 47.5776 396.375 48.3039 396.119 48.9558C395.864 49.6078 395.359 50.1319 394.715 50.413C394.071 50.6941 393.341 50.709 392.687 50.4545Z" fill="white"/>
<path d="M389.313 59.058L354.334 45.4659C353.679 45.211 353.154 44.708 352.872 44.0673C352.59 43.4266 352.575 42.7006 352.83 42.049C353.086 41.3974 353.591 40.8735 354.234 40.5923C354.877 40.3111 355.607 40.2958 356.261 40.5496L391.241 54.1418C391.896 54.3962 392.422 54.8992 392.705 55.5401C392.987 56.1811 393.002 56.9074 392.746 57.5593C392.491 58.2113 391.986 58.7354 391.342 59.0165C390.698 59.2976 389.968 59.3125 389.313 59.058Z" fill="white"/>
<path d="M402.972 42.8797H350.125L341.723 29.5728C341.405 29.0689 340.964 28.6535 340.44 28.3657C339.917 28.0778 339.329 27.9268 338.731 27.9268H326.106C325.642 27.9268 325.182 28.0178 324.753 28.1946C324.325 28.3714 323.935 28.6306 323.607 28.9573C323.279 29.284 323.018 29.6719 322.841 30.0987C322.663 30.5256 322.572 30.9831 322.572 31.4451V94.3354C322.572 94.7974 322.663 95.255 322.841 95.6818C323.018 96.1087 323.279 96.4966 323.607 96.8233C323.935 97.15 324.325 97.4091 324.753 97.5859C325.182 97.7628 325.642 97.8538 326.106 97.8538H402.972C403.437 97.8538 403.896 97.7628 404.325 97.5859C404.754 97.4091 405.143 97.15 405.471 96.8233C405.8 96.4966 406.06 96.1087 406.238 95.6818C406.415 95.255 406.507 94.7974 406.507 94.3354V46.3981C406.507 45.936 406.415 45.4785 406.238 45.0516C406.06 44.6248 405.8 44.2369 405.471 43.9102C405.143 43.5835 404.754 43.3243 404.325 43.1475C403.896 42.9707 403.437 42.8797 402.972 42.8797Z" fill="#CCCCCC"/>
<path d="M225.602 193.628H257.642C258.506 193.628 259.334 193.97 259.946 194.579C260.557 195.187 260.9 196.012 260.9 196.872V211.064C260.9 216.154 258.869 221.035 255.253 224.635C251.638 228.234 246.735 230.256 241.622 230.256C236.509 230.256 231.605 228.234 227.99 224.635C224.374 221.035 222.343 216.154 222.343 211.064V196.872C222.343 196.012 222.687 195.187 223.298 194.579C223.909 193.97 224.737 193.628 225.602 193.628Z" fill="#2F2E41"/>
<path d="M259.831 219.009H223.413C222.477 219.008 221.58 218.638 220.918 217.979C220.256 217.32 219.884 216.427 219.883 215.495V156.597C219.883 150.857 222.173 145.352 226.25 141.294C230.327 137.235 235.856 134.955 241.622 134.955C247.387 134.955 252.917 137.235 256.994 141.294C261.07 145.352 263.361 150.857 263.361 156.597V215.495C263.36 216.427 262.987 217.32 262.326 217.979C261.664 218.638 260.767 219.008 259.831 219.009Z" fill="#2F2E41"/>
<path d="M241.409 130.198C257.46 130.198 270.472 117.244 270.472 101.264C270.472 85.2846 257.46 72.3304 241.409 72.3304C225.357 72.3304 212.345 85.2846 212.345 101.264C212.345 117.244 225.357 130.198 241.409 130.198Z" fill="#6C63FF"/>
<path d="M244.797 110.925C243.001 110.875 240.766 110.812 239.046 109.561C238.533 109.173 238.112 108.678 237.812 108.111C237.512 107.544 237.34 106.918 237.308 106.278C237.277 105.823 237.352 105.367 237.527 104.946C237.703 104.524 237.973 104.149 238.318 103.849C239.217 103.093 240.53 102.915 241.945 103.329L240.479 92.665L241.555 92.5182L243.278 105.056L242.38 104.645C241.338 104.169 239.908 103.928 239.019 104.675C238.801 104.87 238.631 105.113 238.523 105.385C238.414 105.656 238.37 105.949 238.394 106.24C238.42 106.716 238.549 107.182 238.772 107.604C238.995 108.027 239.307 108.396 239.687 108.688C241.026 109.662 242.807 109.788 244.827 109.844L244.797 110.925Z" fill="#2F2E41"/>
<path d="M235.158 93.5847H229.308V94.6659H235.158V93.5847Z" fill="#2F2E41"/>
<path d="M253.622 93.5847H247.772V94.6659H253.622V93.5847Z" fill="#2F2E41"/>
<path d="M269.946 239C269.674 239 269.404 238.969 269.139 238.907L204.077 223.823C203.626 223.718 203.199 223.526 202.822 223.258C202.445 222.989 202.125 222.649 201.881 222.257C201.636 221.865 201.471 221.429 201.395 220.974C201.319 220.519 201.335 220.053 201.44 219.604L203.258 211.832C203.47 210.924 204.036 210.138 204.831 209.646C205.626 209.153 206.584 208.995 207.496 209.207L272.558 224.291C273.01 224.395 273.436 224.588 273.813 224.856C274.19 225.125 274.51 225.465 274.754 225.857C274.999 226.249 275.164 226.685 275.24 227.14C275.316 227.595 275.3 228.061 275.195 228.51L273.377 236.281C273.197 237.053 272.759 237.741 272.137 238.235C271.514 238.728 270.742 238.998 269.946 239Z" fill="#2F2E41"/>
<path d="M212.228 235.824C211.372 235.822 210.545 235.511 209.901 234.948C209.258 234.385 208.842 233.608 208.73 232.763L207.695 224.85C207.575 223.927 207.828 222.993 208.399 222.255C208.969 221.516 209.811 221.033 210.739 220.912L276.982 212.32C277.91 212.2 278.848 212.451 279.59 213.02C280.332 213.588 280.817 214.427 280.938 215.351L281.974 223.263C282.095 224.188 281.842 225.122 281.271 225.86C280.7 226.599 279.858 227.081 278.929 227.202L212.686 235.794C212.534 235.814 212.381 235.824 212.228 235.824Z" fill="#2F2E41"/>
<path d="M222.209 78.6538C217.499 78.1191 213.851 73.6259 213.45 69.0669C212.973 63.6432 216.146 58.492 220.499 55.4485C225.051 52.2657 230.722 50.9365 236.209 50.6439C246.913 50.1136 257.433 53.5656 265.723 60.3285C269.834 63.7282 273.674 68.0589 275.13 73.2898C276.394 77.8326 275.365 82.979 271.695 86.1606C270.787 86.9403 269.727 87.5242 268.581 87.8755C267.435 88.2267 266.229 88.3377 265.037 88.2014C262.19 87.907 259.562 86.4163 257.288 84.77C252.864 81.5677 249.232 77.1065 243.842 75.433C239.89 74.206 234.761 75.2861 232.346 78.8441C231.798 79.6586 231.442 80.5863 231.307 81.5574C231.257 81.7645 231.288 81.9827 231.394 82.1679C231.499 82.3531 231.672 82.4914 231.876 82.5549C232.084 82.6108 232.306 82.5826 232.494 82.4766C232.681 82.3706 232.819 82.1952 232.878 81.9885C233.512 77.507 239.047 75.8348 242.931 76.8582C248.594 78.3504 252.396 83.3815 257.043 86.5779C259.485 88.2585 262.264 89.6022 265.26 89.8433C267.843 90.0451 270.407 89.2611 272.43 87.6505C276.4 84.53 277.918 79.163 277.04 74.3308C276.024 68.7351 272.24 63.9392 268.089 60.2262C259.674 52.7784 248.75 48.7606 237.492 48.9734C231.75 49.1047 225.759 50.2847 220.812 53.3061C216.014 56.2368 212.305 61.1398 211.82 66.8391C211.394 71.8555 214.097 77.1025 218.738 79.3002C219.832 79.8162 221.006 80.1459 222.209 80.2757C223.249 80.3937 223.241 78.7709 222.209 78.6538Z" fill="#2F2E41"/>
<path d="M241.637 203.442C251.846 203.442 260.121 195.204 260.121 185.041C260.121 174.879 251.846 166.64 241.637 166.64C231.429 166.64 223.154 174.879 223.154 185.041C223.154 195.204 231.429 203.442 241.637 203.442Z" fill="#E6E6E6"/>
<path d="M240.096 193.178L234.23 185.668L237.642 183.027L240.419 186.582L249.803 176.721L252.941 179.681L240.096 193.178Z" fill="#6C63FF"/>
<path d="M262.476 196.87C262.353 196.87 262.23 196.863 262.108 196.851C261.646 196.804 261.199 196.668 260.791 196.448C260.383 196.229 260.022 195.931 259.731 195.572L254.675 189.38C254.084 188.657 253.806 187.73 253.902 186.803C253.998 185.876 254.46 185.025 255.187 184.437L273.078 169.539C273.805 168.951 274.736 168.674 275.668 168.77C276.599 168.865 277.455 169.324 278.047 170.046L283.103 176.238C283.693 176.961 283.971 177.888 283.875 178.815C283.779 179.742 283.317 180.593 282.591 181.181L264.699 196.079C264.072 196.59 263.287 196.87 262.476 196.87Z" fill="#6C63FF"/>
<path d="M218.666 196.87C217.857 196.87 217.072 196.592 216.446 196.082L198.549 181.179C197.823 180.59 197.362 179.74 197.267 178.813C197.171 177.887 197.449 176.96 198.039 176.238L203.096 170.046C203.687 169.324 204.542 168.865 205.472 168.769C206.403 168.674 207.334 168.95 208.061 169.536L225.958 184.439C226.684 185.028 227.144 185.878 227.24 186.805C227.335 187.731 227.058 188.658 226.468 189.38L221.411 195.572C221.12 195.931 220.76 196.229 220.352 196.448C219.944 196.668 219.496 196.804 219.035 196.851C218.912 196.863 218.789 196.869 218.666 196.87Z" fill="#6C63FF"/>
</g>
<defs>
<clipPath id="clip0_156_308">
<rect width="413" height="239" fill="white"/>
</clipPath>
</defs>
</svg>
