<svg width="60" height="60" viewBox="0 0 60 60" fill="none" xmlns="http://www.w3.org/2000/svg">
<path d="M56.25 29.1374V28.9687C56.25 28.6687 56.25 28.3874 56.25 28.0874C56.25 27.7874 56.25 27.0937 56.1 26.6062C55.95 26.1187 55.9687 25.6499 55.875 25.1812C55.404 22.6566 54.5571 20.217 53.3625 17.9437C53.0625 17.3812 52.7437 16.8374 52.4062 16.2937C52.0687 15.7499 51.5625 14.9999 51.1875 14.5499C49.678 12.4936 47.8707 10.6737 45.825 9.1499L45.1875 8.6999L44.4937 8.2124L44.325 8.08115L44.1562 7.96865H44.0437H43.8937L42.5437 7.1999H42.45C40.295 6.03726 37.9838 5.19107 35.5875 4.6874H35.3625H35.2687C34.6312 4.55615 33.9937 4.4624 33.3937 4.36865H32.3625H31.4437H31.35C30.9562 4.36865 30.5812 4.36865 30.1875 4.36865C24.5629 4.55396 19.1467 6.54199 14.7378 10.0395C10.329 13.537 7.16086 18.3589 5.70076 23.7938C4.24065 29.2288 4.56587 34.9891 6.62844 40.2252C8.69101 45.4613 12.3817 49.8959 17.1562 52.8749L17.4937 53.0812L18.5437 53.6249C20.4029 54.5225 22.3597 55.202 24.375 55.6499C26.2229 56.0519 28.1089 56.2531 30 56.2499H30.2812C30.7283 56.1821 31.1359 55.955 31.4288 55.6104C31.7216 55.2659 31.8801 54.8271 31.875 54.3749C31.875 53.8776 31.6775 53.4007 31.3258 53.0491C30.9742 52.6974 30.4973 52.4999 30 52.4999C26.2532 52.5101 22.5644 51.575 19.275 49.7812C18.7875 49.5187 18.3375 49.2374 17.8687 48.9374C14.6913 46.9033 12.0764 44.1028 10.2645 40.7936C8.45267 37.4844 7.502 33.7727 7.49999 29.9999C7.49066 29.8813 7.49066 29.7622 7.49999 29.6437C7.5058 28.0461 7.69453 26.4545 8.0625 24.8999C8.48886 23.1633 9.11819 21.483 9.9375 19.8937C10.6763 18.4223 11.5687 17.0333 12.6 15.7499C13.6518 14.4685 14.8401 13.3053 16.1437 12.2812C17.5722 11.156 19.134 10.2113 20.7937 9.46865C23.6893 8.17055 26.8267 7.49962 30 7.4999C30.356 7.48119 30.7127 7.48119 31.0687 7.4999C31.6147 7.52197 32.1592 7.57204 32.7 7.6499C32.9711 7.66788 33.2406 7.70548 33.5062 7.7624C33.7783 7.79272 34.0478 7.84285 34.3125 7.9124H34.5C37.8328 8.61008 40.9623 10.0594 43.65 12.1499C45.2909 13.4253 46.7484 14.9206 47.9812 16.5937C48.3215 17.0368 48.6345 17.5002 48.9187 17.9812C49.1491 18.3265 49.3618 18.6832 49.5562 19.0499C49.636 19.1685 49.7051 19.294 49.7625 19.4249C50.9363 21.5507 51.7474 23.8573 52.1625 26.2499C52.1625 26.2499 52.1625 26.3812 52.1625 26.4374C52.2401 26.8208 52.2902 27.2093 52.3125 27.5999C52.3849 28.1347 52.4287 28.673 52.4437 29.2124C52.4437 29.4374 52.4437 29.6437 52.4437 29.8687C52.4437 30.1149 52.4922 30.3587 52.5865 30.5862C52.6807 30.8137 52.8188 31.0204 52.9929 31.1945C53.167 31.3686 53.3737 31.5067 53.6012 31.6009C53.8287 31.6952 54.0725 31.7437 54.3187 31.7437C54.816 31.7437 55.2929 31.5461 55.6446 31.1945C55.9962 30.8428 56.1937 30.3659 56.1937 29.8687C56.25 29.6062 56.25 29.3624 56.25 29.1374Z" fill="#6C63FF"/>
<path d="M22.95 27.806C22.35 28.406 21.5438 29.156 20.5313 30.0373L17.0063 33.9185C16.731 34.1379 16.5231 34.4303 16.4063 34.7623C16.3213 34.9773 16.2768 35.2061 16.275 35.4373V36.7123C16.2718 36.9886 16.3721 37.2562 16.5563 37.4623C16.6502 37.5622 16.7635 37.6419 16.8892 37.6967C17.0149 37.7515 17.1504 37.7802 17.2875 37.781H28.125C28.2675 37.7855 28.409 37.7574 28.539 37.6989C28.669 37.6404 28.7839 37.5531 28.875 37.4435C29.0466 37.2387 29.1396 36.9795 29.1375 36.7123V34.9498C29.1475 34.6667 29.0466 34.3909 28.8563 34.181C28.7636 34.0808 28.6501 34.002 28.5238 33.9502C28.3975 33.8984 28.2614 33.8748 28.125 33.881H22.6875L25.1625 31.106C25.8282 30.5231 26.4545 29.8967 27.0375 29.231C27.565 28.6299 27.9895 27.9457 28.2938 27.206C28.5913 26.4676 28.7379 25.6771 28.725 24.881C28.7603 23.8601 28.5548 22.8452 28.125 21.9185C27.6566 21.0438 26.9473 20.3216 26.0813 19.8373C25.0531 19.3008 23.9026 19.0423 22.7438 19.0873C21.8554 19.0739 20.9741 19.2463 20.1563 19.5935C19.4484 19.9238 18.8115 20.3887 18.2813 20.9623C17.7536 21.4994 17.3392 22.137 17.0625 22.8373C16.7791 23.5537 16.6328 24.3169 16.6313 25.0873C16.6227 25.3296 16.7103 25.5655 16.875 25.7435C16.9602 25.8443 17.0665 25.925 17.1864 25.9801C17.3063 26.0352 17.4368 26.0633 17.5688 26.0623H19.575C19.8085 26.055 20.0355 25.9836 20.2313 25.856C20.3589 25.7679 20.4666 25.654 20.5474 25.5215C20.6281 25.3891 20.6801 25.2411 20.7 25.0873C20.7559 24.6773 20.8762 24.2786 21.0563 23.906C21.2135 23.5752 21.4643 23.2977 21.7775 23.1078C22.0907 22.9178 22.4527 22.8238 22.8188 22.8373C23.075 22.8104 23.3339 22.8439 23.5748 22.9351C23.8158 23.0262 24.032 23.1725 24.2063 23.3623C24.5266 23.8017 24.6855 24.3381 24.6563 24.881C24.6533 25.3361 24.5305 25.7824 24.3 26.1748C23.9352 26.7837 23.48 27.3338 22.95 27.806Z" fill="#6C63FF"/>
<path d="M42.975 30.1125H41.4375V20.4375C41.4416 20.1666 41.3408 19.9045 41.1562 19.7062C41.0647 19.602 40.9523 19.5182 40.8263 19.4601C40.7004 19.4019 40.5637 19.3708 40.425 19.3687H37.9687C37.7257 19.3638 37.4853 19.4195 37.2693 19.5308C37.0532 19.6421 36.8683 19.8055 36.7312 20.0062L30.1125 30.1875C29.9823 30.3544 29.8867 30.5456 29.8312 30.75C29.807 30.9053 29.807 31.0634 29.8312 31.2187V32.925C29.7786 33.2114 29.8391 33.5072 30 33.75C30.0944 33.8556 30.21 33.9402 30.3392 33.9983C30.4684 34.0564 30.6083 34.0868 30.75 34.0875H37.5V36.8062C37.4983 37.079 37.591 37.344 37.7625 37.5562C37.8564 37.6561 37.9697 37.7358 38.0954 37.7906C38.2211 37.8454 38.3566 37.8741 38.4937 37.875H40.3687C40.5358 37.8974 40.7058 37.8745 40.8609 37.8085C41.0159 37.7425 41.1504 37.6359 41.25 37.5C41.3431 37.4029 41.4159 37.2882 41.4642 37.1626C41.5125 37.0371 41.5353 36.9032 41.5312 36.7687V33.9937H43.0875C43.2268 33.9953 43.3647 33.9659 43.4912 33.9075C43.6177 33.8491 43.7296 33.7633 43.8187 33.6562C44.0033 33.4579 44.1041 33.1959 44.1 32.925V31.1812C44.1121 30.9068 44.0181 30.6382 43.8375 30.4312C43.73 30.3125 43.5955 30.2216 43.4453 30.1661C43.2951 30.1106 43.1338 30.0922 42.975 30.1125ZM37.5 25.0687V30.2062H34.2187L37.5 25.0687Z" fill="#6C63FF"/>
<path d="M39.1875 50.625C38.1658 51.0749 37.1131 51.4509 36.0375 51.75C35.5402 51.8146 35.089 52.0741 34.7831 52.4715C34.4772 52.8688 34.3416 53.3714 34.4063 53.8687C34.4709 54.366 34.7304 54.8172 35.1278 55.1231C35.5251 55.4291 36.0277 55.5646 36.525 55.5C36.6933 55.5184 36.863 55.5184 37.0313 55.5C38.3112 55.1531 39.5644 54.7145 40.7813 54.1875C41.0152 54.0828 41.2262 53.9331 41.4023 53.7469C41.5783 53.5607 41.716 53.3417 41.8074 53.1023C41.8988 52.8629 41.9422 52.6078 41.935 52.3516C41.9278 52.0955 41.8703 51.8433 41.7656 51.6093C41.661 51.3754 41.5113 51.1644 41.3251 50.9883C41.1389 50.8123 40.9198 50.6746 40.6804 50.5832C40.441 50.4918 40.186 50.4484 39.9298 50.4556C39.6737 50.4628 39.4214 50.5203 39.1875 50.625Z" fill="#6C63FF"/>
<path d="M54.0375 34.4999C53.7999 34.4345 53.5517 34.4165 53.3071 34.4471C53.0626 34.4777 52.8265 34.5561 52.6123 34.678C52.3981 34.7999 52.21 34.9629 52.0588 35.1575C51.9077 35.3522 51.7963 35.5747 51.7312 35.8124C51.4357 36.8928 51.0661 37.9516 50.625 38.9812C50.4303 39.4364 50.4236 39.9501 50.6062 40.4103C50.7889 40.8704 51.1461 41.2397 51.6 41.4374C51.8297 41.5408 52.0794 41.592 52.3312 41.5874C52.6972 41.5887 53.0555 41.4828 53.362 41.2829C53.6685 41.083 53.9099 40.7978 54.0562 40.4624C54.5857 39.2485 55.0183 37.9946 55.35 36.7124C55.4546 36.2458 55.377 35.7569 55.133 35.3456C54.889 34.9343 54.4971 34.6318 54.0375 34.4999Z" fill="#6C63FF"/>
<path d="M47.1188 44.6436C46.4001 45.4966 45.6165 46.2927 44.775 47.0248C44.4895 47.2766 44.2874 47.6093 44.1956 47.9787C44.1038 48.348 44.1265 48.7366 44.2608 49.0927C44.3951 49.4489 44.6347 49.7557 44.9475 49.9724C45.2604 50.1892 45.6319 50.3055 46.0125 50.3061C46.4683 50.3054 46.9082 50.1388 47.25 49.8373C48.2319 48.9835 49.1471 48.0558 49.9875 47.0623C50.1465 46.874 50.2668 46.6563 50.3415 46.4214C50.4162 46.1866 50.4439 45.9394 50.423 45.6938C50.4021 45.4483 50.333 45.2093 50.2197 44.9905C50.1064 44.7716 49.951 44.5773 49.7625 44.4186C49.5742 44.2596 49.3564 44.1393 49.1216 44.0646C48.8868 43.9899 48.6395 43.9622 48.394 43.9831C48.1485 44.004 47.9094 44.0731 47.6906 44.1864C47.4718 44.2997 47.2775 44.4551 47.1188 44.6436Z" fill="#6C63FF"/>
</svg>
