<svg width="581" height="460" viewBox="0 0 581 460" fill="none" xmlns="http://www.w3.org/2000/svg">
<g clip-path="url(#clip0_37_28)">
<path d="M528.862 419.932C517.724 431.957 504.962 442.339 490.952 450.774C490.631 450.973 490.304 451.16 489.976 451.354L467.295 431.11C467.533 430.887 467.797 430.636 468.081 430.361C484.981 414.179 568.879 301.034 574.47 273.482C574.084 275.777 579.514 365.794 528.862 419.932Z" fill="#F0F0F0"/>
<path d="M495.328 454.68C494.9 454.783 494.463 454.88 494.026 454.968L477.01 439.781C477.342 439.664 477.731 439.525 478.175 439.37C485.476 436.764 507.221 428.894 528.86 419.93C552.112 410.295 575.253 399.407 580.229 392.434C579.162 394.054 546.277 443.192 495.328 454.68Z" fill="#F0F0F0"/>
<path d="M528.547 120.473H526.124V53.5304C526.124 48.4424 525.13 43.4042 523.2 38.7035C521.269 34.0028 518.439 29.7317 514.871 26.1339C511.303 22.5362 507.068 19.6823 502.406 17.7352C497.745 15.7881 492.749 14.7859 487.703 14.7859H347.062C342.017 14.7859 337.02 15.7881 332.359 17.7351C327.698 19.6822 323.462 22.5361 319.894 26.1339C316.327 29.7316 313.497 34.0027 311.566 38.7034C309.635 43.4041 308.641 48.4423 308.641 53.5302V420.781C308.641 425.869 309.635 430.907 311.566 435.608C313.497 440.309 316.327 444.58 319.894 448.178C323.462 451.775 327.698 454.629 332.359 456.576C337.02 458.523 342.016 459.526 347.062 459.526H487.703C492.749 459.526 497.745 458.523 502.406 456.576C507.068 454.629 511.303 451.776 514.871 448.178C518.439 444.58 521.269 440.309 523.199 435.608C525.13 430.907 526.124 425.869 526.124 420.781V168.123H528.547V120.473Z" fill="#3F3D56"/>
<path d="M517.946 53.7965V420.513C517.946 424.313 517.203 428.075 515.761 431.586C514.319 435.096 512.205 438.285 509.54 440.972C506.875 443.658 503.712 445.789 500.23 447.242C496.748 448.695 493.017 449.442 489.249 449.441H347.931C344.163 449.441 340.433 448.693 336.952 447.239C333.472 445.786 330.309 443.655 327.646 440.969C324.982 438.282 322.869 435.093 321.427 431.583C319.986 428.074 319.244 424.312 319.244 420.513V53.7965C319.244 49.9976 319.986 46.2358 321.427 42.7259C322.869 39.2161 324.982 36.027 327.646 33.3407C330.309 30.6545 333.472 28.5237 336.952 27.07C340.433 25.6163 344.163 24.8683 347.931 24.8686H365.08C364.238 26.9559 363.918 29.2199 364.148 31.4614C364.377 33.7029 365.149 35.8532 366.396 37.7232C367.643 39.5932 369.326 41.1256 371.298 42.1856C373.27 43.2456 375.47 43.8008 377.704 43.8023H458.274C460.51 43.8044 462.712 43.2516 464.686 42.1926C466.66 41.1335 468.345 39.6009 469.592 37.7298C470.84 35.8587 471.612 33.7068 471.839 31.4638C472.067 29.2209 471.744 26.9558 470.898 24.8686H489.249C493.017 24.8672 496.748 25.6144 500.23 27.0676C503.712 28.5207 506.875 30.6513 509.54 33.3377C512.205 36.024 514.319 39.2135 515.761 42.7239C517.203 46.2342 517.946 49.9968 517.946 53.7965Z" fill="white"/>
<path d="M473.987 244.362H349.772C347.596 244.359 345.51 243.487 343.972 241.935C342.433 240.384 341.568 238.281 341.566 236.087V231.968C341.568 229.774 342.433 227.67 343.972 226.119C345.51 224.567 347.596 223.695 349.772 223.692H473.987C476.162 223.695 478.248 224.567 479.786 226.119C481.325 227.67 482.19 229.774 482.193 231.968V236.087C482.19 238.281 481.325 240.384 479.786 241.935C478.248 243.487 476.162 244.359 473.987 244.362Z" fill="#F0F0F0"/>
<path d="M473.987 279.869H349.772C347.596 279.867 345.51 278.994 343.972 277.443C342.433 275.891 341.568 273.788 341.566 271.594V267.475C341.568 265.281 342.433 263.177 343.972 261.626C345.51 260.075 347.596 259.202 349.772 259.199H473.987C476.162 259.202 478.248 260.075 479.786 261.626C481.325 263.177 482.19 265.281 482.193 267.475V271.594C482.19 273.788 481.325 275.891 479.786 277.443C478.248 278.994 476.162 279.867 473.987 279.869Z" fill="#F0F0F0"/>
<path d="M480.2 236.421H355.985C353.701 236.418 351.511 235.502 349.895 233.873C348.28 232.244 347.371 230.035 347.369 227.732V223.613C347.371 221.309 348.28 219.1 349.895 217.471C351.511 215.842 353.701 214.926 355.985 214.923H480.2C482.485 214.926 484.675 215.842 486.29 217.471C487.905 219.1 488.814 221.309 488.817 223.613V227.732C488.814 230.035 487.905 232.244 486.29 233.873C484.675 235.502 482.485 236.418 480.2 236.421ZM355.985 216.579C354.136 216.581 352.363 217.322 351.055 218.641C349.748 219.96 349.012 221.748 349.01 223.613V227.732C349.012 229.597 349.748 231.385 351.055 232.703C352.363 234.022 354.136 234.764 355.985 234.766H480.2C482.049 234.764 483.822 234.022 485.13 232.703C486.438 231.385 487.173 229.597 487.175 227.732V223.613C487.173 221.748 486.438 219.96 485.13 218.641C483.822 217.322 482.049 216.581 480.2 216.579H355.985Z" fill="#3F3D56"/>
<path d="M480.2 271.928H355.985C353.701 271.925 351.511 271.009 349.895 269.38C348.28 267.751 347.371 265.543 347.369 263.239V259.12C347.371 256.816 348.28 254.608 349.895 252.979C351.511 251.35 353.701 250.433 355.985 250.431H480.2C482.485 250.433 484.675 251.35 486.29 252.979C487.905 254.608 488.814 256.816 488.817 259.12V263.239C488.814 265.543 487.905 267.751 486.29 269.38C484.675 271.009 482.485 271.925 480.2 271.928ZM355.985 252.086C354.136 252.088 352.363 252.83 351.055 254.148C349.748 255.467 349.012 257.255 349.01 259.12V263.239C349.012 265.104 349.748 266.892 351.055 268.21C352.363 269.529 354.136 270.271 355.985 270.273H480.2C482.049 270.271 483.822 269.529 485.13 268.21C486.438 266.892 487.173 265.104 487.175 263.239V259.12C487.173 257.255 486.438 255.467 485.13 254.148C483.822 252.83 482.049 252.088 480.2 252.086H355.985Z" fill="#3F3D56"/>
<path d="M517.946 53.7965V133.562C505.377 136.897 492.217 137.279 479.479 134.681C466.741 132.082 454.764 126.571 444.469 118.572C434.174 110.573 425.836 100.299 420.097 88.5407C414.357 76.7823 411.368 63.8529 411.361 50.7471C411.361 48.4078 411.455 46.0929 411.641 43.8023H458.274C460.51 43.8044 462.712 43.2516 464.686 42.1926C466.66 41.1335 468.345 39.6009 469.592 37.7298C470.84 35.8587 471.612 33.7068 471.839 31.4638C472.067 29.2209 471.744 26.9558 470.898 24.8686H489.249C493.017 24.8672 496.748 25.6144 500.23 27.0676C503.712 28.5207 506.875 30.6513 509.54 33.3377C512.205 36.024 514.319 39.2135 515.761 42.7239C517.203 46.2342 517.946 49.9968 517.946 53.7965Z" fill="#F0F0F0"/>
<path d="M390.649 444.459C390.649 446.141 390.587 447.801 390.453 449.441H347.931C344.163 449.441 340.433 448.693 336.952 447.239C333.472 445.786 330.309 443.655 327.646 440.969C324.982 438.282 322.869 435.093 321.427 431.583C319.986 428.074 319.244 424.312 319.244 420.513V381.288C328.157 380.119 337.215 380.879 345.814 383.518C354.413 386.157 362.356 390.613 369.112 396.591C375.869 402.568 381.285 409.929 384.998 418.184C388.712 426.438 390.638 435.395 390.649 444.459Z" fill="#6C63FF"/>
<path d="M47.6956 375.634C48.8905 376.164 50.2449 376.194 51.462 375.718C52.679 375.243 53.6592 374.299 54.1876 373.096L92.4936 285.548C93.3704 283.544 93.6383 281.323 93.2634 279.166C92.8886 277.009 91.8878 275.013 90.3877 273.429C88.8877 271.846 86.9556 270.747 84.836 270.271C82.7163 269.794 80.5042 269.963 78.4795 270.755C76.1403 271.655 74.1828 273.346 72.9401 275.538C72.7425 275.885 72.5632 276.242 72.4031 276.608L34.0971 364.156C33.836 364.753 33.694 365.395 33.6792 366.047C33.6644 366.699 33.7771 367.348 34.0109 367.956C34.2446 368.564 34.5948 369.119 35.0415 369.591C35.4882 370.062 36.0226 370.44 36.6142 370.703L47.6956 375.634Z" fill="#6C63FF"/>
<path d="M90.921 321.49L53.0315 312.999L62.4095 287.981C64.0071 281.866 67.7251 276.531 72.8891 272.944C78.0531 269.356 84.321 267.754 90.556 268.428L90.921 268.469L90.921 321.49Z" fill="#2F2E41"/>
<path d="M167.452 376.886C166.337 376.884 165.247 376.557 164.314 375.943C163.38 375.33 162.642 374.457 162.19 373.43L123.884 285.881C122.666 283.096 122.553 279.945 123.568 277.078C124.583 274.211 126.649 271.845 129.341 270.467C132.033 269.089 135.147 268.805 138.041 269.671C140.935 270.538 143.39 272.49 144.9 275.126C145.112 275.498 145.305 275.881 145.476 276.274L183.782 363.822C184.397 365.228 184.434 366.822 183.883 368.255C183.332 369.687 182.24 370.84 180.846 371.461L169.389 376.558L169.383 376.545C168.764 376.77 168.11 376.886 167.452 376.886Z" fill="#6C63FF"/>
<path d="M114.465 346.822C113.159 346.824 111.908 347.347 110.985 348.278C110.062 349.209 109.543 350.471 109.541 351.788V453.586C109.543 454.903 110.062 456.165 110.985 457.096C111.908 458.026 113.159 458.55 114.465 458.551H126.577C127.882 458.55 129.134 458.026 130.057 457.096C130.98 456.165 131.499 454.903 131.5 453.586V351.788C131.499 350.471 130.98 349.209 130.057 348.278C129.134 347.347 127.882 346.824 126.577 346.822H114.465Z" fill="#6C63FF"/>
<path d="M90.5089 346.822C89.2035 346.824 87.9519 347.347 87.0289 348.278C86.1058 349.209 85.5866 350.471 85.5851 351.788V453.586C85.5866 454.903 86.1058 456.165 87.0289 457.096C87.9519 458.026 89.2035 458.55 90.5089 458.551H102.621C103.926 458.55 105.178 458.026 106.101 457.096C107.024 456.165 107.543 454.903 107.545 453.586V351.788C107.543 350.471 107.024 349.209 106.101 348.278C105.178 347.347 103.926 346.824 102.621 346.822H90.5089Z" fill="#6C63FF"/>
<path d="M108.181 240.171C131.295 240.171 150.033 221.275 150.033 197.966C150.033 174.658 131.295 155.762 108.181 155.762C85.067 155.762 66.3293 174.658 66.3293 197.966C66.3293 221.275 85.067 240.171 108.181 240.171Z" fill="#6C63FF"/>
<path d="M122.108 215.683C124.821 215.607 128.198 215.512 130.799 213.596C131.573 213.002 132.21 212.244 132.663 211.376C133.117 210.508 133.377 209.551 133.425 208.571C133.472 207.874 133.359 207.176 133.094 206.531C132.829 205.886 132.42 205.311 131.898 204.852C130.54 203.695 128.556 203.423 126.418 204.057L128.633 187.733L127.007 187.508L124.403 206.699L125.761 206.071C127.335 205.342 129.496 204.972 130.839 206.116C131.169 206.415 131.425 206.787 131.589 207.203C131.754 207.618 131.82 208.067 131.785 208.512C131.745 209.242 131.55 209.954 131.213 210.601C130.875 211.247 130.404 211.813 129.831 212.259C127.806 213.75 125.115 213.943 122.063 214.029L122.108 215.683Z" fill="#2F2E41"/>
<path d="M145.514 189.141H136.674V190.796H145.514V189.141Z" fill="#2F2E41"/>
<path d="M117.613 189.141H108.773V190.796H117.613V189.141Z" fill="#2F2E41"/>
<path d="M149.65 377.4L134.587 266.51C134.425 265.321 133.842 264.231 132.945 263.443C132.048 262.654 130.898 262.219 129.708 262.219H118.338C118.385 261.946 118.41 261.669 118.412 261.391V257.254C118.412 255.937 117.893 254.674 116.97 253.743C116.046 252.812 114.794 252.289 113.488 252.289H103.641C102.335 252.289 101.082 252.812 100.159 253.743C99.2357 254.674 98.7169 255.937 98.7169 257.254V261.391C98.7186 261.669 98.7432 261.946 98.7906 262.219H87.4205C86.2304 262.219 85.0805 262.654 84.1837 263.443C83.2868 264.232 82.7037 265.321 82.5421 266.51L67.4787 377.4C67.3833 378.102 67.4382 378.817 67.6396 379.497C67.841 380.176 68.1843 380.804 68.6465 381.338C69.1086 381.872 69.6789 382.3 70.3189 382.594C70.9589 382.887 71.6537 383.039 72.3568 383.039H144.772C145.475 383.039 146.17 382.887 146.81 382.594C147.45 382.3 148.02 381.872 148.482 381.338C148.944 380.804 149.288 380.176 149.489 379.497C149.69 378.817 149.745 378.102 149.65 377.4Z" fill="#2F2E41"/>
<path d="M126.208 321.49V268.469L126.573 268.428C132.815 267.755 139.09 269.362 144.258 272.958C149.425 276.554 153.142 281.9 154.733 288.024L164.097 312.999L126.208 321.49Z" fill="#2F2E41"/>
<path d="M106.073 241.488L77.1257 230.157C72.3921 228.304 67.6321 226.508 62.9236 224.591C60.9067 223.883 59.0488 222.778 57.457 221.342C56.0711 219.863 55.1266 218.02 54.7316 216.024C53.7276 211.744 53.9091 207.066 53.9807 202.698C54.0363 197.921 54.4262 193.153 55.1475 188.431C56.4116 179.557 59.3803 171.018 63.8873 163.29C72.0055 149.858 85.9925 139.752 102.081 140.559C109.53 140.932 117.021 143.627 122.555 148.763C123.133 149.459 123.78 150.092 124.488 150.652C124.98 150.838 125.515 150.874 126.027 150.756C126.703 150.712 127.378 150.679 128.055 150.656C130.402 150.556 132.753 150.655 135.084 150.953C139.331 151.416 143.357 153.101 146.68 155.808C149.445 158.207 151.695 161.594 151.927 165.358C152.039 167.086 151.756 168.816 151.099 170.416C150.442 172.016 149.43 173.443 148.14 174.586C144.687 177.521 139.759 176.489 135.617 176.268L120.44 175.457L112.751 175.046C111.168 174.962 111.172 177.444 112.751 177.529L133.188 178.621C136.473 178.796 139.858 179.226 143.145 179.027C145.67 178.912 148.082 177.934 149.983 176.253C151.719 174.645 153.013 172.61 153.737 170.347C154.461 168.085 154.592 165.671 154.116 163.343C153.062 158.264 149.314 154.062 144.92 151.563C138.941 148.162 131.8 147.836 125.109 148.339L125.98 148.702C118.412 140.511 106.819 137.053 95.9365 138.263C84.4459 139.541 74.2261 146.005 66.8832 154.845C58.6963 164.7 54.2349 176.989 52.5005 189.626C51.5979 196.449 51.3008 203.339 51.6126 210.215C51.5998 213.247 52.1142 216.258 53.1326 219.112C54.2946 221.889 56.3955 224.16 59.0617 225.522C62.1185 227.01 65.261 228.312 68.4725 229.42L79.1375 233.595L100.087 241.794L105.419 243.882C106.897 244.46 107.537 242.061 106.073 241.488Z" fill="#2F2E41"/>
<path d="M60.558 157.122C58.0423 157.122 55.5831 156.37 53.4914 154.96C51.3996 153.551 49.7693 151.548 48.8066 149.204C47.8439 146.86 47.592 144.281 48.0828 141.793C48.5736 139.305 49.785 137.019 51.5639 135.225C53.3427 133.431 55.6092 132.21 58.0765 131.715C60.5439 131.22 63.1014 131.474 65.4256 132.445C67.7498 133.416 69.7363 135.06 71.134 137.169C72.5316 139.278 73.2777 141.758 73.2777 144.295C73.2739 147.696 71.9325 150.956 69.548 153.361C67.1634 155.766 63.9303 157.118 60.558 157.122ZM60.558 133.951C58.5292 133.951 56.546 134.558 54.8591 135.694C53.1722 136.831 51.8575 138.447 51.0811 140.337C50.3047 142.227 50.1015 144.307 50.4973 146.313C50.8931 148.32 51.8701 150.163 53.3047 151.61C54.7393 153.056 56.567 154.042 58.5568 154.441C60.5466 154.84 62.6091 154.635 64.4835 153.852C66.3579 153.069 67.9599 151.743 69.087 150.042C70.2142 148.341 70.8158 146.341 70.8158 144.295C70.8127 141.553 69.731 138.923 67.808 136.984C65.8849 135.045 63.2776 133.954 60.558 133.951Z" fill="#2F2E41"/>
<path d="M273.184 236.611L245.653 215.377L224.597 243.14L252.128 264.374L273.184 236.611Z" fill="#F0F0F0"/>
<path d="M117.591 47.0598C121.941 47.0564 126.231 48.0801 130.118 50.0492C134.005 52.0182 137.381 54.8777 139.976 58.3988L156.051 37.2026L107.816 0L70.9247 48.6417L91.7139 64.6759C93.7944 59.4727 97.3696 55.0155 101.981 51.8765C106.592 48.7376 112.028 47.0602 117.591 47.0598Z" fill="#F0F0F0"/>
<path d="M580.179 460H0.820621C0.602979 460 0.39425 459.913 0.240354 459.758C0.0864575 459.602 0 459.392 0 459.173C0 458.953 0.0864575 458.743 0.240354 458.587C0.39425 458.432 0.602979 458.345 0.820621 458.345H580.179C580.397 458.345 580.606 458.432 580.76 458.587C580.914 458.743 581 458.953 581 459.173C581 459.392 580.914 459.602 580.76 459.758C580.606 459.913 580.397 460 580.179 460Z" fill="#3F3D56"/>
<path d="M438.776 322.686H379.804C377.629 322.684 375.543 321.811 374.004 320.26C372.466 318.709 371.601 316.605 371.598 314.411V310.292C371.601 308.098 372.466 305.995 374.004 304.443C375.543 302.892 377.629 302.019 379.804 302.017H438.776C440.952 302.019 443.037 302.892 444.576 304.443C446.114 305.995 446.98 308.098 446.982 310.292V314.411C446.98 316.605 446.114 318.709 444.576 320.26C443.037 321.811 440.952 322.684 438.776 322.686Z" fill="#6C63FF"/>
<path d="M444.99 314.746H386.018C383.734 314.743 381.543 313.827 379.928 312.198C378.313 310.569 377.404 308.36 377.401 306.057V301.938C377.404 299.634 378.313 297.425 379.928 295.796C381.543 294.167 383.734 293.251 386.018 293.248H444.99C447.274 293.251 449.464 294.167 451.08 295.796C452.695 297.425 453.604 299.634 453.606 301.938V306.057C453.604 308.36 452.695 310.569 451.08 312.198C449.464 313.827 447.274 314.743 444.99 314.746ZM386.018 294.903C384.169 294.906 382.396 295.647 381.088 296.966C379.78 298.285 379.045 300.073 379.043 301.938V306.057C379.045 307.922 379.78 309.709 381.088 311.028C382.396 312.347 384.169 313.089 386.018 313.091H444.99C446.839 313.089 448.612 312.347 449.92 311.028C451.227 309.709 451.963 307.922 451.965 306.057V301.938C451.963 300.073 451.227 298.285 449.92 296.966C448.612 295.647 446.839 294.906 444.99 294.903H386.018Z" fill="#3F3D56"/>
</g>
<defs>
<clipPath id="clip0_37_28">
<rect width="581" height="460" fill="white"/>
</clipPath>
</defs>
</svg>
