<svg width="435" height="442" viewBox="0 0 435 442" fill="none" xmlns="http://www.w3.org/2000/svg">
<g clip-path="url(#clip0_112_1269)">
<path d="M396.851 422.853C396.386 422.876 395.926 422.747 395.533 422.486C395.14 422.224 394.833 421.842 394.653 421.391C394.473 420.94 394.43 420.441 394.529 419.963C394.628 419.485 394.865 419.051 395.206 418.719L395.362 418.069C395.341 418.017 395.321 417.965 395.3 417.913C394.832 416.751 394.047 415.76 393.044 415.065C392.041 414.369 390.866 414.001 389.664 414.005C388.463 414.01 387.29 414.388 386.292 415.091C385.294 415.794 384.516 416.791 384.056 417.957C382.217 422.612 379.876 427.274 379.299 432.195C379.045 434.37 379.153 436.575 379.616 438.711C375.297 428.811 373.054 418.05 373.039 407.159C373.038 404.426 373.183 401.695 373.472 398.979C373.711 396.752 374.043 394.541 374.467 392.346C376.782 380.437 381.753 369.274 388.97 359.775C392.464 357.772 395.289 354.692 397.065 350.95C397.709 349.605 398.163 348.169 398.415 346.687C398.021 346.741 396.929 340.435 397.227 340.048C396.677 339.172 395.694 338.737 395.095 337.882C392.112 333.633 388.002 334.375 385.856 340.15C381.273 342.58 381.229 346.611 384.041 350.488C385.83 352.955 386.076 356.293 387.646 358.933C387.484 359.151 387.317 359.361 387.155 359.578C384.203 363.567 381.629 367.851 379.472 372.368C379.997 367.308 379.371 362.189 377.645 357.433C375.897 353.001 372.619 349.267 369.733 345.436C366.267 340.833 359.158 342.842 358.547 348.676C358.541 348.733 358.535 348.789 358.53 348.846C358.958 349.1 359.378 349.37 359.788 349.655C360.304 350.017 360.704 350.534 360.935 351.139C361.166 351.744 361.218 352.408 361.084 353.045C360.95 353.681 360.636 354.26 360.183 354.706C359.731 355.152 359.16 355.443 358.547 355.542L358.484 355.553C358.637 357.176 358.907 358.785 359.292 360.366C355.589 375.412 363.583 380.892 374.997 381.138C375.249 381.274 375.494 381.41 375.746 381.539C373.579 387.993 372.22 394.716 371.702 401.538C371.409 405.563 371.426 409.606 371.754 413.628L371.734 413.486C370.907 409.013 368.637 404.978 365.306 402.061C360.36 397.791 353.371 396.218 348.034 392.786C347.467 392.403 346.808 392.199 346.134 392.197C345.46 392.196 344.799 392.396 344.23 392.776C343.662 393.156 343.208 393.699 342.923 394.34C342.638 394.982 342.533 395.696 342.622 396.398C342.629 396.448 342.636 396.498 342.644 396.548C343.439 396.889 344.214 397.281 344.963 397.723C345.392 397.977 345.811 398.247 346.222 398.532C346.738 398.894 347.137 399.411 347.369 400.016C347.6 400.621 347.652 401.285 347.517 401.922C347.383 402.558 347.069 403.137 346.617 403.583C346.164 404.029 345.594 404.32 344.981 404.42L344.918 404.43C344.873 404.436 344.834 404.443 344.789 404.45C346.148 407.86 348.056 411 350.428 413.73C352.744 426.865 362.687 428.111 373.324 424.286H373.33C374.497 429.615 376.188 434.802 378.376 439.764H396.4C396.464 439.553 396.522 439.336 396.581 439.125C394.912 439.236 393.237 439.131 391.593 438.813C392.93 437.089 394.268 435.351 395.605 433.627C395.635 433.595 395.663 433.561 395.689 433.525C396.367 432.643 397.052 431.767 397.73 430.884L397.731 430.883C397.767 428.178 397.471 425.479 396.851 422.853Z" fill="#F2F2F2"/>
<path d="M366.819 254.434C371.595 236.209 380.506 220.686 394.893 208.745C395.462 207.82 396.357 207.171 397.381 206.94C398.405 206.708 399.475 206.913 400.356 207.509L433.193 229.788C434.073 230.386 434.69 231.327 434.911 232.403C435.131 233.479 434.937 234.603 434.369 235.528L406.295 281.218C405.726 282.142 404.831 282.791 403.807 283.023C402.783 283.255 401.713 283.05 400.832 282.454L367.995 260.174C367.115 259.576 366.498 258.636 366.277 257.56C366.057 256.484 366.251 255.36 366.819 254.434Z" fill="#F2F2F2"/>
<path d="M377.817 242.343C379.048 232.713 386.629 222.869 395.866 212.97C396.399 212.104 397.237 211.496 398.196 211.279C399.155 211.062 400.157 211.254 400.982 211.812L429.203 230.959C430.026 231.52 430.605 232.4 430.812 233.408C431.018 234.416 430.836 235.469 430.305 236.335L405.322 276.993C404.789 277.859 403.951 278.466 402.992 278.683C402.033 278.9 401.031 278.709 400.206 278.15L382.724 266.289C379.055 263.794 376.478 259.871 375.558 255.382C374.638 250.893 375.451 246.204 377.817 242.343Z" fill="white"/>
<path d="M380.335 281.606C376.168 263.216 376.863 245.103 383.998 227.357C384.074 226.259 384.56 225.237 385.352 224.516C386.143 223.794 387.174 223.432 388.219 223.509L427.209 226.416C428.254 226.495 429.226 227.007 429.913 227.838C430.599 228.67 430.944 229.753 430.871 230.851L427.207 285.101C427.132 286.199 426.645 287.221 425.854 287.942C425.063 288.663 424.032 289.025 422.987 288.949L383.997 286.042C382.952 285.962 381.98 285.451 381.293 284.62C380.607 283.788 380.262 282.704 380.335 281.606Z" fill="#F2F2F2"/>
<path d="M384.432 265.444C381.098 256.381 383.23 243.918 386.787 230.567C386.858 229.539 387.314 228.582 388.055 227.906C388.796 227.231 389.762 226.892 390.74 226.964L424.249 229.462C425.227 229.536 426.138 230.015 426.781 230.794C427.424 231.573 427.746 232.587 427.678 233.616L424.418 281.891C424.348 282.919 423.892 283.876 423.151 284.551C422.41 285.227 421.444 285.566 420.465 285.494L399.707 283.946C395.349 283.616 391.293 281.483 388.429 278.014C385.565 274.545 384.128 270.024 384.432 265.444Z" fill="white"/>
<path d="M383.697 168.078L366.994 103.112C366.278 100.362 364.562 98.018 362.217 96.5854C359.871 95.1528 357.083 94.7468 354.455 95.455C353.095 95.8214 351.821 96.4749 350.709 97.3757C349.598 98.2765 348.673 99.4057 347.99 100.694C347.308 101.983 346.882 103.405 346.739 104.872C346.596 106.339 346.74 107.822 347.16 109.229L366.48 176.153L376.588 217.339C375.115 218.52 374.025 220.149 373.464 222.004C372.904 223.859 372.9 225.851 373.454 227.708C374.008 229.565 375.093 231.198 376.561 232.385C378.029 233.572 379.809 234.255 381.66 234.342C383.51 234.429 385.341 233.915 386.904 232.87C388.467 231.825 389.685 230.3 390.395 228.502C391.104 226.704 391.269 224.72 390.868 222.82C390.467 220.92 389.519 219.196 388.153 217.881L383.697 168.078Z" fill="#FFB6B6"/>
<path d="M263.233 179.317L280.363 114.474C281.081 111.724 280.741 108.789 279.418 106.3C278.094 103.811 275.892 101.969 273.287 101.171C271.939 100.759 270.526 100.639 269.133 100.819C267.74 100.999 266.396 101.475 265.184 102.218C263.972 102.962 262.916 103.957 262.082 105.143C261.248 106.329 260.652 107.681 260.331 109.117L244.503 177.046L233.229 217.897C231.389 218.125 229.661 218.943 228.279 220.239C226.898 221.535 225.929 223.246 225.505 225.141C225.081 227.036 225.223 229.022 225.91 230.829C226.598 232.636 227.798 234.177 229.348 235.243C230.898 236.308 232.723 236.846 234.574 236.784C236.426 236.722 238.214 236.062 239.696 234.895C241.178 233.727 242.283 232.109 242.859 230.259C243.435 228.409 243.456 226.418 242.917 224.556L263.233 179.317Z" fill="#FFB6B6"/>
<path d="M361.258 428.397L350.343 428.397L345.15 384.156L361.26 384.157L361.258 428.397Z" fill="#FFB6B6"/>
<path d="M361.643 440.363L328.077 440.361V439.915C328.077 436.274 329.453 432.783 331.903 430.208C334.354 427.634 337.677 426.187 341.141 426.187L347.274 421.299L358.713 426.188L361.643 426.188L361.643 440.363Z" fill="#2F2E41"/>
<path d="M284.445 428.513L273.699 426.499L275.977 381.986L291.837 384.959L284.445 428.513Z" fill="#FFB6B6"/>
<path d="M282.824 440.363L249.779 434.17L249.854 433.731C250.462 430.147 252.401 426.963 255.243 424.881C258.085 422.798 261.598 421.987 265.009 422.626L271.862 418.945L282.308 425.868L285.192 426.408L282.824 440.363Z" fill="#2F2E41"/>
<path d="M285.508 224.984C285.508 224.984 275.336 240.124 275.75 245.205C276.165 250.286 279.758 246.233 276.165 250.286C272.572 254.34 270.479 251.62 272.244 256.628C274.009 261.635 274.728 258.393 274.009 261.635C273.291 264.878 274.728 388.909 274.728 388.909H293.435C293.435 388.909 303.984 316.99 302.648 313.633C301.313 310.275 301.344 311.737 302.765 308.168C304.187 304.6 305.525 300.356 305.525 300.356L320.311 256.628L331.717 318.196L345.143 391.356H363.069C363.069 391.356 366.139 283.772 367.496 282.432C368.853 281.091 367.23 278.079 365.527 276.342C363.824 274.606 364.163 272.843 364.712 269.266C365.261 265.689 367.576 263.694 367.496 261.449C367.416 259.204 372.446 223.535 364.542 217.86C356.639 212.185 285.508 224.984 285.508 224.984Z" fill="#2F2E41"/>
<path d="M348.057 74.1689L327.132 68.4711L317.364 54.3149L294.167 57.3115L289.23 76.6206L272.715 86.6935C302.319 86.8794 286.377 176.999 290.728 182.814C294.268 187.546 273.055 198.802 279.703 205.983C286.352 213.163 283.893 210.29 282.351 218.108C280.808 225.925 269.562 234.199 282.351 234.117C295.14 234.034 372.31 232.876 370.106 223.608C367.901 214.341 367.935 216.694 364.611 210.884C361.286 205.073 359.049 208.32 360.167 199.746C361.286 191.172 357.652 184.54 360.184 180.746C364.069 174.922 360.154 132.882 356.49 134.004L348.057 74.1689Z" fill="#6C63FF"/>
<path d="M342.082 74.4694C342.082 74.4694 357.388 67.6364 362.901 80.3793C364.661 84.4493 366.144 94.6722 367.572 92.4053C369 90.1383 367.622 95.1081 368.506 95.1142C369.296 95.1197 370.509 93.7783 369.592 98.3995C369.305 99.9154 369.387 101.483 369.832 102.956C370.277 104.429 371.07 105.76 372.137 106.825L345.534 123.567L342.082 74.4694Z" fill="#6C63FF"/>
<path d="M284.573 86.0539C284.573 86.0539 269.266 79.2209 263.754 91.9638C262.204 95.5476 262.589 103.511 259.571 102.617C256.552 101.723 258.695 105.091 258.297 106.261C257.853 107.566 259.791 111.257 257.069 109.965C254.347 108.673 254.518 118.409 254.518 118.409L281.121 135.151L284.573 86.0539Z" fill="#6C63FF"/>
<path d="M291.83 66.9692L287.42 75.0784C287.42 75.0784 275.293 82.029 275.293 83.1875C275.293 84.3459 277.498 93.8051 275.293 101.239C273.088 108.673 279.502 122.654 280.805 134.159C286.318 182.814 269.926 200.492 266.474 231.469L301.457 242.205C301.457 242.205 307.264 160.803 307.264 142.268C307.264 123.733 291.83 66.9692 291.83 66.9692Z" fill="#2F2E41"/>
<path d="M323.801 63.4939L332.813 68.8801C332.813 68.8801 344.606 71.6125 344.747 72.7615C344.888 73.9104 344.93 86.1217 348.02 93.199C351.111 100.276 350.259 104.04 358.582 124.961C362.835 135.651 372.598 221.178 372.598 221.178L339.207 236.521C339.207 236.521 323.552 156.566 321.299 138.183C319.046 119.8 323.801 63.4939 323.801 63.4939Z" fill="#2F2E41"/>
<path d="M301.266 52.4492C313.856 52.4492 324.062 41.7249 324.062 28.4959C324.062 15.2669 313.856 4.5426 301.266 4.5426C288.677 4.5426 278.471 15.2669 278.471 28.4959C278.471 41.7249 288.677 52.4492 301.266 52.4492Z" fill="#FFB6B6"/>
<path d="M316.268 47.1067C310.88 42.6808 318.246 23.2113 309.348 27.367C309.348 27.367 298.472 20.0945 296.287 24.8735C293.757 30.4072 284.759 27.8969 279.232 25.9437C279.666 24.8826 279.975 23.7696 280.151 22.6295C279.131 23.4741 278.05 24.2348 276.918 24.9047C276.159 24.4785 275.487 23.8996 274.941 23.2009C274.402 22.552 274.064 21.7454 273.974 20.8892C273.884 20.033 274.045 19.1684 274.436 18.4114C275.356 16.9257 277.254 16.4686 278.371 15.1491C278.501 14.9636 278.585 14.7479 278.617 14.5206C278.65 14.2933 278.629 14.0611 278.557 13.844C278.424 13.3131 278.404 12.7579 278.498 12.218C278.593 11.678 278.799 11.1666 279.103 10.7201C279.407 10.2736 279.801 9.90306 280.257 9.63485C280.713 9.36665 281.219 9.20739 281.74 9.16842C281.95 9.17515 282.158 9.12755 282.346 9.02982C283.284 8.42658 284.15 7.70813 284.927 6.88962C283.631 6.95196 285.215 -1.37903 298.057 0.198893C301.29 0.0742327 302.978 3.82101 306.162 4.41321C313.879 -0.220573 320.767 6.46369 324.119 12.8531C327.471 19.2425 331.099 39.8342 316.268 47.1067Z" fill="#2F2E41"/>
<path d="M219.003 12.7439H14.6665C10.7791 12.7473 7.0517 14.3709 4.30213 17.2586C1.55256 20.1463 0.00537953 24.0621 0 28.147V221.625C0.00505514 225.71 1.55189 229.627 4.30129 232.516C7.0507 235.405 10.7782 237.031 14.6665 237.036H219.003C222.89 237.031 226.617 235.405 229.365 232.515C232.113 229.626 233.658 225.71 233.662 221.625V28.147C233.658 24.063 232.112 20.1473 229.364 17.2595C226.616 14.3716 222.89 12.7476 219.003 12.7439Z" fill="white"/>
<path d="M125.639 57.1501H103.809C102.737 57.1501 101.708 56.7025 100.95 55.9059C100.192 55.1092 99.7661 54.0288 99.7661 52.9021C99.7661 51.7755 100.192 50.695 100.95 49.8984C101.708 49.1017 102.737 48.6542 103.809 48.6542H125.639C126.711 48.6542 127.739 49.1017 128.497 49.8984C129.255 50.695 129.681 51.7755 129.681 52.9021C129.681 54.0288 129.255 55.1092 128.497 55.9059C127.739 56.7025 126.711 57.1501 125.639 57.1501Z" fill="#6C63FF"/>
<path d="M415.088 252.329H393.258C392.186 252.329 391.158 251.881 390.399 251.085C389.641 250.288 389.215 249.207 389.215 248.081C389.215 246.954 389.641 245.874 390.399 245.077C391.158 244.28 392.186 243.833 393.258 243.833H415.088C416.16 243.833 417.188 244.28 417.946 245.077C418.705 245.874 419.13 246.954 419.13 248.081C419.13 249.207 418.705 250.288 417.946 251.085C417.188 251.881 416.16 252.329 415.088 252.329Z" fill="#6C63FF"/>
<path d="M182.235 146.13H47.2125C46.1403 146.13 45.1121 145.682 44.354 144.886C43.5958 144.089 43.1699 143.008 43.1699 141.882C43.1699 140.755 43.5958 139.675 44.354 138.878C45.1121 138.081 46.1403 137.634 47.2125 137.634H182.235C183.307 137.634 184.335 138.081 185.093 138.878C185.852 139.675 186.277 140.755 186.277 141.882C186.277 143.008 185.852 144.089 185.093 144.886C184.335 145.682 183.307 146.13 182.235 146.13Z" fill="#E6E6E6"/>
<path d="M182.235 174.166H47.2125C46.1403 174.166 45.1121 173.719 44.354 172.922C43.5958 172.125 43.1699 171.045 43.1699 169.918C43.1699 168.792 43.5958 167.711 44.354 166.915C45.1121 166.118 46.1403 165.67 47.2125 165.67H182.235C183.307 165.67 184.335 166.118 185.093 166.915C185.852 167.711 186.277 168.792 186.277 169.918C186.277 171.045 185.852 172.125 185.093 172.922C184.335 173.719 183.307 174.166 182.235 174.166Z" fill="#E6E6E6"/>
<path d="M182.235 202.203H47.2125C46.1403 202.203 45.1121 201.755 44.354 200.959C43.5958 200.162 43.1699 199.081 43.1699 197.955C43.1699 196.828 43.5958 195.748 44.354 194.951C45.1121 194.154 46.1403 193.707 47.2125 193.707H182.235C183.307 193.707 184.335 194.154 185.093 194.951C185.852 195.748 186.277 196.828 186.277 197.955C186.277 199.081 185.852 200.162 185.093 200.959C184.335 201.755 183.307 202.203 182.235 202.203Z" fill="#E6E6E6"/>
<path d="M154.637 69.8959H74.812C70.9246 69.8993 67.1972 71.5229 64.4477 74.4106C61.6981 77.2983 60.1509 81.2141 60.1455 85.299V110.557C60.1506 114.643 61.6974 118.56 64.4468 121.449C67.1962 124.338 70.9238 125.964 74.812 125.969H154.637C158.524 125.963 162.251 124.338 164.999 121.448C167.747 118.559 169.292 114.642 169.295 110.557V85.299C169.292 81.215 167.746 77.2993 164.998 74.4115C162.25 71.5236 158.523 69.8996 154.637 69.8959ZM167.678 110.557C167.678 114.194 166.303 117.682 163.856 120.253C161.409 122.825 158.09 124.27 154.629 124.27H97.327C87.8947 124.27 78.8487 120.332 72.1791 113.324C65.5095 106.316 61.7625 96.81 61.7625 86.8986V85.299C61.768 81.6648 63.1449 78.1812 65.5912 75.6122C68.0375 73.0433 71.3535 71.5986 74.812 71.5951H154.637C158.095 71.5989 161.41 73.044 163.855 75.6131C166.299 78.1823 167.675 81.6657 167.678 85.299V110.557Z" fill="#E6E6E6"/>
<path d="M115.618 107.049C123.209 107.049 129.363 100.582 129.363 92.6055C129.363 84.6289 123.209 78.1625 115.618 78.1625C108.027 78.1625 101.873 84.6289 101.873 92.6055C101.873 100.582 108.027 107.049 115.618 107.049Z" fill="#E6E6E6"/>
<path d="M147.239 125.969L85.7026 125.74L105.107 120.642L107.525 112.257L126.129 112.146L131.699 120.438L145.767 124.27L147.045 124.618L147.239 125.969Z" fill="#E6E6E6"/>
<path d="M107.806 101.827C110.756 99.4044 106.724 88.7473 111.595 91.022C111.595 91.022 117.548 87.0412 118.744 89.6572C120.129 92.6862 125.054 91.3121 128.079 90.2429C127.842 89.6621 127.673 89.0529 127.576 88.4288C128.135 88.8912 128.726 89.3075 129.346 89.6742C129.761 89.4409 130.129 89.124 130.428 88.7416C130.723 88.3864 130.908 87.9449 130.957 87.4762C131.007 87.0076 130.918 86.5343 130.704 86.1199C130.201 85.3067 129.162 85.0565 128.55 84.3343C128.48 84.2327 128.433 84.1146 128.416 83.9902C128.398 83.8658 128.409 83.7387 128.449 83.6198C128.522 83.3293 128.533 83.0254 128.481 82.7298C128.429 82.4342 128.316 82.1543 128.15 81.9099C127.983 81.6655 127.768 81.4627 127.518 81.3159C127.269 81.169 126.991 81.0819 126.706 81.0605C126.591 81.0642 126.477 81.0382 126.375 80.9847C125.861 80.6545 125.387 80.2612 124.962 79.8132C125.671 79.8473 124.804 75.2871 117.775 76.1509C116.005 76.0826 115.081 78.1335 113.339 78.4577C109.114 75.9212 105.344 79.58 103.509 83.0774C101.675 86.5748 99.6884 97.8462 107.806 101.827Z" fill="#E6E6E6"/>
<path d="M219.003 12.7439H14.6665C10.7791 12.7473 7.0517 14.3709 4.30213 17.2586C1.55256 20.1463 0.00537953 24.0621 0 28.147V221.625C0.00505514 225.71 1.55189 229.627 4.30129 232.516C7.0507 235.405 10.7782 237.031 14.6665 237.036H219.003C222.89 237.031 226.617 235.405 229.365 232.515C232.113 229.626 233.658 225.71 233.662 221.625V28.147C233.658 24.063 232.112 20.1473 229.364 17.2595C226.616 14.3716 222.89 12.7476 219.003 12.7439ZM232.044 221.625C232.044 225.261 230.67 228.749 228.222 231.321C225.775 233.892 222.456 235.337 218.995 235.337H106.887C93.0624 235.337 79.3736 232.476 66.6017 226.917C53.8298 221.358 42.225 213.21 32.4498 202.938C22.6746 192.666 14.9205 180.472 9.63019 167.051C4.3399 153.63 1.61703 139.246 1.61703 124.719V28.147C1.62254 24.5128 2.99941 21.0292 5.4457 18.4602C7.89199 15.8913 11.208 14.4466 14.6665 14.4431H219.003C222.461 14.4469 225.776 15.892 228.221 18.4611C230.666 21.0303 232.041 24.5137 232.044 28.147V221.625Z" fill="#E6E6E6"/>
<path d="M432.482 441.739L177.51 442C177.255 441.999 177.012 441.892 176.832 441.702C176.653 441.512 176.552 441.256 176.552 440.988C176.552 440.721 176.653 440.465 176.832 440.275C177.012 440.085 177.255 439.978 177.51 439.977L432.482 439.716C432.736 439.717 432.98 439.824 433.159 440.014C433.339 440.203 433.44 440.46 433.44 440.727C433.44 440.995 433.339 441.251 433.159 441.441C432.98 441.63 432.736 441.738 432.482 441.739Z" fill="#CACACA"/>
</g>
<defs>
<clipPath id="clip0_112_1269">
<rect width="435" height="442" fill="white"/>
</clipPath>
</defs>
</svg>
