<svg width="576" height="422" viewBox="0 0 576 422" fill="none" xmlns="http://www.w3.org/2000/svg">
<g clip-path="url(#clip0_43_98)">
<path d="M15.2513 421.069C15.2513 421.585 15.6575 422 16.1633 422H575.088C575.594 422 576 421.585 576 421.069C576 420.553 575.594 420.138 575.088 420.138H16.1633C15.6575 420.138 15.2513 420.553 15.2513 421.069Z" fill="#3F3D58"/>
<path d="M194.228 74.4379H14.9677C8.13145 74.4379 2.56741 68.7582 2.56741 61.7799C2.56741 54.8016 8.13145 49.1219 14.9677 49.1219H194.228C201.064 49.1219 206.628 54.8016 206.628 61.7799C206.628 68.7582 201.064 74.4379 194.228 74.4379ZM14.9677 50.6866C8.97448 50.6866 4.1002 55.6622 4.1002 61.7799C4.1002 67.8977 8.97448 72.8732 14.9677 72.8732H194.228C200.221 72.8732 205.095 67.8977 205.095 61.7799C205.095 55.6622 200.221 50.6866 194.228 50.6866H14.9677Z" fill="#E2E3E4"/>
<path d="M194.228 222.571H14.9677C8.33838 222.571 2.95062 217.071 2.95062 210.304C2.95062 203.537 8.33838 198.037 14.9677 198.037H194.228C200.857 198.037 206.245 203.537 206.245 210.304C206.245 217.071 200.857 222.571 194.228 222.571Z" fill="#6C63FF"/>
<path d="M135.483 24.5336H12.0171C5.38776 24.5336 0 19.0339 0 12.2668C0 5.49972 5.38776 0 12.0171 0H135.483C142.113 0 147.501 5.49972 147.501 12.2668C147.501 19.0339 142.113 24.5336 135.483 24.5336Z" fill="#E2E3E4"/>
<path d="M194.228 123.943H14.9677C8.13145 123.943 2.56741 118.264 2.56741 111.285C2.56741 104.307 8.13145 98.6273 14.9677 98.6273H194.228C201.064 98.6273 206.628 104.307 206.628 111.285C206.628 118.264 201.064 123.943 194.228 123.943ZM14.9677 100.192C8.97448 100.192 4.1002 105.168 4.1002 111.285C4.1002 117.403 8.97448 122.379 14.9677 122.379H194.228C200.221 122.379 205.095 117.403 205.095 111.285C205.095 105.168 200.221 100.192 194.228 100.192H14.9677Z" fill="#E2E3E4"/>
<path d="M194.228 173.456H14.9677C8.13145 173.456 2.56741 167.777 2.56741 160.798C2.56741 153.82 8.13145 148.141 14.9677 148.141H194.228C201.064 148.141 206.628 153.82 206.628 160.798C206.628 167.777 201.064 173.456 194.228 173.456ZM14.9677 149.705C8.97448 149.705 4.1002 154.681 4.1002 160.798C4.1002 166.916 8.97448 171.892 14.9677 171.892H194.228C200.221 171.892 205.095 166.916 205.095 160.798C205.095 154.681 200.221 149.705 194.228 149.705H14.9677Z" fill="#E2E3E4"/>
<path d="M8.80588 40.0314H55.7859C56.9049 40.0314 57.8169 40.9545 57.8169 42.1045C57.8169 43.2467 56.9049 44.1777 55.7859 44.1777H8.80588C7.68694 44.1777 6.77493 43.2545 6.77493 42.1045C6.77493 40.9623 7.68694 40.0314 8.80588 40.0314Z" fill="#E2E3E4"/>
<path d="M8.80588 90.7102H55.7859C56.9049 90.7102 57.8169 91.6333 57.8169 92.7755C57.8169 93.9177 56.9049 94.8487 55.7859 94.8487H8.80588C7.68694 94.8487 6.77493 93.9255 6.77493 92.7834C6.77493 91.6412 7.68694 90.7102 8.80588 90.7102Z" fill="#E2E3E4"/>
<path d="M8.80588 141.397H55.7859C56.9049 141.397 57.8169 142.32 57.8169 143.47C57.8169 144.612 56.9049 145.535 55.7859 145.535H8.80588C7.68694 145.535 6.77493 144.612 6.77493 143.462C6.77493 142.32 7.68694 141.397 8.80588 141.397Z" fill="#E2E3E4"/>
<path d="M342.64 103.47L325.504 109.228V84.0448H341.054L342.64 103.47Z" fill="#9F616A"/>
<path d="M327.627 91.0153C337.057 91.0153 344.702 83.2116 344.702 73.5852C344.702 63.9588 337.057 56.155 327.627 56.155C318.196 56.155 310.551 63.9588 310.551 73.5852C310.551 83.2116 318.196 91.0153 327.627 91.0153Z" fill="#9F616A"/>
<path d="M332.317 71.8562C329.458 71.7702 327.581 68.8208 326.469 66.1296C325.358 63.4384 324.216 60.3483 321.564 59.2374C319.395 58.3299 315.571 64.4711 313.862 62.836C312.076 61.1306 313.816 52.3764 315.709 50.8039C317.602 49.2315 320.192 48.9264 322.63 48.809C328.577 48.5274 334.562 49.0202 340.395 50.2641C344.004 51.0308 347.714 52.1886 350.32 54.8485C353.615 58.2282 354.458 63.3211 354.696 68.0854C354.941 72.9593 354.665 78.06 352.343 82.3237C350.021 86.5873 345.162 89.7323 340.502 88.6448C340.034 86.0632 340.51 83.4111 340.694 80.7825C340.87 78.1617 340.686 75.3297 339.115 73.2409C337.551 71.1521 334.195 70.3229 332.371 72.177" fill="#2F2E43"/>
<path d="M353.324 77.8958C355.033 76.6206 357.079 75.5488 359.179 75.8148C361.448 76.0964 363.371 78.0053 363.954 80.2662C364.536 82.5271 363.885 85.0149 362.475 86.8612C361.072 88.7074 358.98 89.9279 356.773 90.5381C355.493 90.8901 354.09 91.0388 352.872 90.5068C351.078 89.7166 350.105 87.3775 350.81 85.5156" fill="#2F2E43"/>
<path d="M287.981 241.894C286.839 247.62 288.931 252.854 292.641 253.582C296.35 254.309 300.282 250.249 301.416 244.522C301.899 242.238 301.822 239.875 301.194 237.622L315.318 147.851L297.653 144.456L290.832 235.596C289.383 237.442 288.41 239.602 287.981 241.902V241.894Z" fill="#9F616A"/>
<path d="M325.32 97.6729H313.264C304.742 98.995 302.427 103.634 300.488 112.208C297.53 125.289 293.752 142.703 294.503 142.961C295.706 143.368 316.23 153.226 326.692 150.972L325.32 97.6729Z" fill="#E2E3E4"/>
<path d="M336.977 383.619H320.928V406.862H336.977V383.619Z" fill="#9F616A"/>
<path d="M305.301 420.928C303.615 420.928 302.113 420.889 300.979 420.78C296.718 420.381 292.648 417.165 290.602 415.288C289.682 414.443 289.391 413.097 289.866 411.939C290.211 411.11 290.893 410.484 291.744 410.242L303.01 406.956L321.25 394.392L321.457 394.767C321.534 394.908 323.327 398.202 323.925 400.424C324.155 401.268 324.093 401.973 323.749 402.52C323.511 402.896 323.174 403.115 322.905 403.24C323.235 403.592 324.27 404.312 327.458 404.828C332.11 405.579 333.091 400.658 333.129 400.455L333.16 400.291L333.298 400.197C335.513 398.742 336.877 398.077 337.344 398.217C337.636 398.303 338.126 398.46 339.452 411.861C339.582 412.284 340.51 415.366 339.881 418.315C339.199 421.523 325.465 420.42 322.714 420.169C322.637 420.177 312.352 420.928 305.309 420.928H305.301Z" fill="#2F2E43"/>
<path d="M382.674 365.358L369.057 374.027L381.106 393.749L394.723 385.08L382.674 365.358Z" fill="#9F616A"/>
<path d="M364.59 417.744C362.704 417.744 360.972 417.509 359.739 417.29C358.528 417.071 357.577 416.086 357.378 414.85C357.24 413.958 357.493 413.058 358.091 412.393L365.946 403.522L374.913 383.009L375.281 383.212C375.419 383.291 378.646 385.113 380.309 386.678C380.945 387.273 381.259 387.906 381.244 388.556C381.236 389.009 381.067 389.369 380.899 389.628C381.359 389.753 382.608 389.8 385.581 388.517C389.919 386.647 388.202 381.937 388.126 381.742L388.065 381.585L388.133 381.437C389.26 379.004 390.065 377.705 390.54 377.572C390.839 377.486 391.329 377.353 399.4 388.016C399.729 388.298 402.113 390.418 403.109 393.257C404.189 396.348 391.965 402.833 389.505 404.1C389.429 404.163 376.638 413.653 371.38 416.352C369.295 417.423 366.828 417.752 364.582 417.752L364.59 417.744Z" fill="#2F2E43"/>
<path d="M348.794 189.251H303.861L299.783 231.919L317.625 389.573H340.563L331.39 298.518L368.598 380.725L388.984 366.158L359.93 289.412C359.93 289.412 370.307 222.555 362.153 205.899C353.998 189.251 348.794 189.251 348.794 189.251Z" fill="#2F2E43"/>
<path d="M371.15 191.849H299.783L321.196 97.6729H352.289L371.15 191.849Z" fill="#E2E3E4"/>
<path d="M377.573 241.894C378.714 247.62 376.622 252.854 372.913 253.582C369.203 254.309 365.272 250.249 364.138 244.522C363.655 242.238 363.731 239.875 364.36 237.622L350.235 147.851L367.901 144.456L374.722 235.596C376.17 237.442 377.143 239.602 377.573 241.902V241.894Z" fill="#9F616A"/>
<path d="M340.234 97.6729H352.289C360.811 98.995 363.126 103.634 365.065 112.208C368.023 125.289 371.802 142.703 371.05 142.961C369.847 143.368 349.323 153.226 338.862 150.972L340.234 97.6729Z" fill="#E2E3E4"/>
</g>
<defs>
<clipPath id="clip0_43_98">
<rect width="576" height="422" fill="white"/>
</clipPath>
</defs>
</svg>
