<svg width="24" height="24" viewBox="0 0 24 24" fill="none" xmlns="http://www.w3.org/2000/svg">
<g clip-path="url(#clip0_11_164)">
<path d="M12 0.959961C5.9086 0.959961 0.960022 5.90854 0.960022 12C0.960022 13.9579 1.49699 15.7852 2.39252 17.3803L0.977834 22.4306C0.955234 22.5114 0.954212 22.5967 0.974873 22.6781C0.995533 22.7594 1.03715 22.8339 1.09558 22.8941C1.15401 22.9544 1.22721 22.9982 1.30788 23.0213C1.38855 23.0445 1.47387 23.046 1.55533 23.0259L6.82127 21.7209C8.36864 22.547 10.1245 23.04 12 23.04C18.0914 23.04 23.04 18.0914 23.04 12C23.04 5.90854 18.0914 0.959961 12 0.959961ZM12 1.91996C17.5726 1.91996 22.08 6.42738 22.08 12C22.08 17.5725 17.5726 22.08 12 22.08C10.2135 22.08 8.54024 21.6142 7.08565 20.8003C6.97926 20.7408 6.85425 20.7241 6.73596 20.7534L2.1244 21.8962L3.36096 17.4843C3.37865 17.422 3.38354 17.3567 3.37532 17.2924C3.3671 17.2281 3.34595 17.1662 3.31315 17.1103C2.42915 15.6113 1.92002 13.8672 1.92002 12C1.92002 6.42738 6.42745 1.91996 12 1.91996ZM7.98846 6.23996C7.68076 6.23996 7.24132 6.35444 6.88033 6.7434C6.66351 6.97702 5.76002 7.85733 5.76002 9.40496C5.76002 11.0185 6.87909 12.4108 7.0144 12.5896L7.01533 12.5906C7.0025 12.5737 7.18708 12.841 7.43346 13.1615C7.67984 13.482 8.02438 13.903 8.45721 14.3587C9.32288 15.2702 10.54 16.3235 12.0506 16.9678C12.7463 17.264 13.2951 17.4429 13.711 17.5734C14.4815 17.8154 15.1834 17.7786 15.7106 17.7009C16.1053 17.6428 16.5393 17.4533 16.9688 17.1815C17.3982 16.9097 17.8191 16.5718 18.0047 16.0584C18.1377 15.6903 18.2053 15.3502 18.2297 15.0703C18.2419 14.9303 18.2435 14.8068 18.2344 14.6925C18.2253 14.5781 18.235 14.4905 18.1285 14.3156C17.905 13.9487 17.6519 13.9391 17.3878 13.8084C17.2411 13.7358 16.8234 13.5318 16.4044 13.3321C15.9859 13.1327 15.6235 12.9561 15.4003 12.8765C15.2593 12.8258 15.0872 12.7528 14.8388 12.7809C14.5904 12.809 14.345 12.9882 14.2022 13.2C14.0668 13.4006 13.5218 14.044 13.3556 14.2331C13.3534 14.2317 13.3679 14.2384 13.3022 14.2059C13.0967 14.1042 12.8454 14.0177 12.4735 13.8215C12.1015 13.6253 11.6363 13.3356 11.1272 12.8868C10.3695 12.2198 9.83871 11.3813 9.67127 11.1C9.68255 11.0865 9.66993 11.1028 9.69377 11.0793L9.69471 11.0784C9.86584 10.9098 10.0175 10.7085 10.1456 10.5609C10.3273 10.3516 10.4075 10.1671 10.4944 9.99465C10.6675 9.65105 10.5711 9.27296 10.471 9.07402C10.4779 9.08778 10.4168 8.95204 10.351 8.79652C10.285 8.64057 10.2008 8.43838 10.111 8.22277C9.93124 7.79156 9.73059 7.30792 9.61127 7.02465C9.47071 6.69099 9.28053 6.44968 9.0319 6.33371C8.78326 6.21774 8.5636 6.25071 8.55471 6.25027C8.37728 6.24209 8.18164 6.23996 7.98846 6.23996ZM7.98846 7.19996C8.17352 7.19996 8.35596 7.20222 8.50877 7.20934C8.66597 7.21717 8.65619 7.21781 8.62596 7.20371C8.59524 7.18939 8.63692 7.18474 8.72627 7.39684C8.84311 7.67421 9.04474 8.1596 9.22502 8.59215C9.31516 8.80842 9.39952 9.01139 9.4669 9.17059C9.53427 9.32978 9.57078 9.41866 9.61315 9.5034L9.61408 9.50527C9.65562 9.58723 9.65195 9.53476 9.63752 9.5634C9.53623 9.76444 9.52248 9.8138 9.42002 9.93184C9.26401 10.1116 9.10488 10.312 9.02065 10.395C8.94695 10.4674 8.81398 10.5801 8.73096 10.8009C8.64781 11.022 8.68662 11.3254 8.82002 11.5518C8.99764 11.8534 9.58294 12.806 10.4925 13.6068C11.0653 14.1118 11.599 14.446 12.0253 14.6709C12.4517 14.8958 12.7989 15.0271 12.8766 15.0656C13.0611 15.1569 13.2627 15.2278 13.4972 15.1996C13.7317 15.1715 13.9338 15.0292 14.0625 14.8837L14.0635 14.8828C14.2347 14.6886 14.7436 14.1075 14.9878 13.7493C14.9982 13.753 14.9948 13.7502 15.076 13.7793L15.0769 13.7803C15.114 13.7935 15.5781 14.0012 15.9919 14.1984C16.4057 14.3956 16.8257 14.6005 16.9622 14.6681C17.1592 14.7656 17.2522 14.829 17.2763 14.8293C17.2779 14.8716 17.2795 14.9173 17.2735 14.9868C17.2566 15.1796 17.2051 15.4465 17.1019 15.7321C17.0513 15.872 16.788 16.1604 16.456 16.3706C16.1239 16.5807 15.7197 16.7292 15.57 16.7512C15.12 16.8175 14.5856 16.8417 13.9988 16.6575C13.5919 16.5297 13.0845 16.3644 12.4275 16.0846C11.0951 15.5164 9.96271 14.5495 9.15377 13.6978C8.74931 13.2719 8.42525 12.8755 8.19471 12.5756C7.9646 12.2762 7.86412 12.1205 7.78033 12.0103L7.7794 12.0093C7.63068 11.8127 6.72002 10.546 6.72002 9.40496C6.72002 8.1974 7.2809 7.72385 7.5844 7.39684C7.74373 7.22516 7.91792 7.19996 7.98846 7.19996Z" fill="white"/>
</g>
<defs>
<clipPath id="clip0_11_164">
<rect width="24" height="24" fill="white"/>
</clipPath>
</defs>
</svg>
