<svg width="35" height="35" viewBox="0 0 35 35" fill="none" xmlns="http://www.w3.org/2000/svg">
<circle cx="17.5" cy="17.5" r="17.5" fill="#D9D9D9"/>
<g clip-path="url(#clip0_111_416)">
<path d="M17.96 5.95996C11.8906 5.95996 6.95996 10.8906 6.95996 16.96C6.95996 18.9108 7.49499 20.7315 8.38727 22.3208L6.97771 27.3528C6.95519 27.4333 6.95417 27.5183 6.97476 27.5994C6.99534 27.6804 7.03681 27.7546 7.09503 27.8147C7.15325 27.8747 7.22618 27.9184 7.30656 27.9414C7.38694 27.9644 7.47195 27.966 7.55312 27.9459L12.8 26.6457C14.3417 27.4688 16.0912 27.96 17.96 27.96C24.0293 27.96 28.96 23.0293 28.96 16.96C28.96 10.8906 24.0293 5.95996 17.96 5.95996ZM17.96 6.91648C23.5123 6.91648 28.0034 11.4076 28.0034 16.96C28.0034 22.5123 23.5123 27.0034 17.96 27.0034C16.1799 27.0034 14.5127 26.5394 13.0634 25.7284C12.9574 25.6692 12.8328 25.6525 12.715 25.6817L8.12012 26.8204L9.3522 22.4245C9.36983 22.3623 9.3747 22.2973 9.36651 22.2332C9.35832 22.1692 9.33725 22.1074 9.30456 22.0518C8.42377 20.5582 7.91648 18.8204 7.91648 16.96C7.91648 11.4076 12.4076 6.91648 17.96 6.91648ZM13.9629 11.2208C13.6563 11.2208 13.2185 11.3349 12.8588 11.7224C12.6428 11.9552 11.7426 12.8323 11.7426 14.3744C11.7426 15.982 12.8576 17.3693 12.9924 17.5475L12.9933 17.5484C12.9805 17.5316 13.1645 17.798 13.4099 18.1173C13.6554 18.4367 13.9987 18.8561 14.43 19.3102C15.2925 20.2183 16.5052 21.2679 18.0104 21.9098C18.7036 22.2049 19.2504 22.3832 19.6647 22.5132C20.4325 22.7543 21.1318 22.7176 21.6571 22.6402C22.0503 22.5823 22.4828 22.3935 22.9107 22.1227C23.3386 21.852 23.758 21.5153 23.9429 21.0037C24.0754 20.6369 24.1427 20.298 24.1671 20.0191C24.1793 19.8797 24.1808 19.7566 24.1717 19.6427C24.1627 19.5288 24.1724 19.4415 24.0662 19.2672C23.8435 18.9016 23.5914 18.8921 23.3283 18.7618C23.1821 18.6895 22.7658 18.4862 22.3484 18.2873C21.9314 18.0886 21.5703 17.9126 21.348 17.8333C21.2075 17.7828 21.0359 17.71 20.7884 17.7381C20.5409 17.7661 20.2965 17.9447 20.1542 18.1556C20.0193 18.3556 19.4762 18.9966 19.3107 19.185C19.3085 19.1837 19.3228 19.1903 19.2574 19.1579C19.0527 19.0566 18.8023 18.9704 18.4317 18.7749C18.0611 18.5794 17.5976 18.2908 17.0903 17.8436C16.3353 17.179 15.8065 16.3435 15.6396 16.0632C15.6509 16.0498 15.6383 16.066 15.6621 16.0427L15.663 16.0417C15.8335 15.8738 15.9846 15.6732 16.1123 15.5261C16.2933 15.3175 16.3732 15.1337 16.4598 14.9619C16.6323 14.6196 16.5362 14.2428 16.4364 14.0446C16.4433 14.0583 16.3825 13.9231 16.3169 13.7681C16.2511 13.6127 16.1673 13.4113 16.0777 13.1965C15.8987 12.7668 15.6988 12.2849 15.5799 12.0027C15.4398 11.6702 15.2503 11.4298 15.0026 11.3142C14.7549 11.1987 14.536 11.2315 14.5271 11.2311C14.3503 11.2229 14.1554 11.2208 13.9629 11.2208ZM13.9629 12.1774C14.1473 12.1774 14.3291 12.1796 14.4814 12.1867C14.638 12.1945 14.6282 12.1951 14.5981 12.1811C14.5675 12.1668 14.609 12.1622 14.6981 12.3735C14.8145 12.6499 15.0154 13.1335 15.195 13.5645C15.2848 13.78 15.3689 13.9822 15.436 14.1408C15.5031 14.2995 15.5395 14.388 15.5817 14.4724L15.5827 14.4743C15.6241 14.556 15.6204 14.5037 15.606 14.5322C15.5051 14.7325 15.4914 14.7817 15.3893 14.8993C15.2339 15.0784 15.0753 15.2781 14.9914 15.3608C14.918 15.4329 14.7855 15.5453 14.7027 15.7652C14.6199 15.9855 14.6586 16.2878 14.7915 16.5135C14.9685 16.8139 15.5516 17.7631 16.4579 18.561C17.0287 19.0642 17.5604 19.3971 17.9852 19.6212C18.41 19.8453 18.7559 19.9762 18.8333 20.0145C19.0172 20.1055 19.2181 20.1761 19.4517 20.1481C19.6853 20.12 19.8868 19.9783 20.015 19.8333L20.0159 19.8323C20.1866 19.6389 20.6936 19.0599 20.9369 18.703C20.9473 18.7066 20.9439 18.7038 21.0248 18.7329L21.0257 18.7338C21.0626 18.747 21.5251 18.954 21.9374 19.1504C22.3497 19.3469 22.7682 19.5511 22.9042 19.6184C23.1004 19.7155 23.1931 19.7788 23.2171 19.7791C23.2187 19.8212 23.2203 19.8668 23.2143 19.936C23.1975 20.1281 23.1462 20.394 23.0434 20.6786C22.993 20.818 22.7306 21.1054 22.3998 21.3147C22.0689 21.5241 21.6662 21.672 21.517 21.694C21.0686 21.7601 20.5362 21.7842 19.9515 21.6006C19.546 21.4733 19.0405 21.3086 18.3859 21.0298C17.0583 20.4637 15.93 19.5002 15.124 18.6516C14.721 18.2273 14.3981 17.8323 14.1684 17.5335C13.9392 17.2352 13.839 17.08 13.7556 16.9702L13.7546 16.9693C13.6064 16.7733 12.6991 15.5112 12.6991 14.3744C12.6991 13.1712 13.2579 12.6993 13.5603 12.3735C13.7191 12.2025 13.8926 12.1774 13.9629 12.1774Z" fill="#4B4B4B"/>
</g>
<defs>
<clipPath id="clip0_111_416">
<rect width="24" height="24" fill="white" transform="translate(6 6)"/>
</clipPath>
</defs>
</svg>
